<svg width="640" height="475" viewBox="0 0 640 475" fill="none" xmlns="http://www.w3.org/2000/svg">
<circle cx="365.496" cy="252.608" r="7.19122" fill="#01BAEF"/>
<circle cx="365.494" cy="290.795" r="7.19122" fill="#01BAEF"/>
<circle cx="365.494" cy="328.983" r="7.19122" fill="#01BAEF"/>
<circle cx="365.494" cy="367.171" r="7.19122" fill="#01BAEF"/>
<circle cx="403.683" cy="252.607" r="7.19122" fill="#01BAEF"/>
<circle cx="403.683" cy="290.795" r="7.19122" fill="#01BAEF"/>
<circle cx="403.683" cy="328.983" r="7.19122" fill="#01BAEF"/>
<circle cx="403.683" cy="367.171" r="7.19122" fill="#01BAEF"/>
<circle cx="441.871" cy="252.607" r="7.19122" fill="#01BAEF"/>
<circle cx="441.871" cy="290.795" r="7.19122" fill="#01BAEF"/>
<circle cx="441.871" cy="328.983" r="7.19122" fill="#01BAEF"/>
<circle cx="441.871" cy="367.171" r="7.19122" fill="#01BAEF"/>
<circle cx="480.058" cy="252.607" r="7.19122" fill="#01BAEF"/>
<circle cx="480.058" cy="290.795" r="7.19122" fill="#01BAEF"/>
<circle cx="480.058" cy="328.983" r="7.19122" fill="#01BAEF"/>
<circle cx="480.058" cy="367.171" r="7.19122" fill="#01BAEF"/>
<circle cx="518.246" cy="252.607" r="7.19122" fill="#01BAEF"/>
<circle cx="518.246" cy="290.795" r="7.19122" fill="#01BAEF"/>
<circle cx="518.246" cy="328.983" r="7.19122" fill="#01BAEF"/>
<circle cx="518.246" cy="367.171" r="7.19122" fill="#01BAEF"/>
<circle cx="556.433" cy="252.607" r="7.19122" fill="#01BAEF"/>
<circle cx="556.433" cy="290.795" r="7.19122" fill="#01BAEF"/>
<circle cx="556.433" cy="328.983" r="7.19122" fill="#01BAEF"/>
<circle cx="556.433" cy="367.171" r="7.19122" fill="#01BAEF"/>
<circle cx="594.621" cy="252.607" r="7.19122" fill="#01BAEF"/>
<circle cx="594.621" cy="290.795" r="7.19122" fill="#01BAEF"/>
<circle cx="594.621" cy="328.983" r="7.19122" fill="#01BAEF"/>
<circle cx="594.621" cy="367.171" r="7.19122" fill="#01BAEF"/>
<circle cx="632.808" cy="252.607" r="7.19122" fill="#01BAEF"/>
<circle cx="632.808" cy="290.795" r="7.19122" fill="#01BAEF"/>
<circle cx="632.808" cy="328.983" r="7.19122" fill="#01BAEF"/>
<circle cx="632.808" cy="367.171" r="7.19122" fill="#01BAEF"/>
<circle cx="7.19122" cy="352.949" r="7.19122" fill="#01BAEF"/>
<circle cx="7.19122" cy="391.136" r="7.19122" fill="#01BAEF"/>
<circle cx="7.19122" cy="429.324" r="7.19122" fill="#01BAEF"/>
<circle cx="7.19122" cy="467.512" r="7.19122" fill="#01BAEF"/>
<circle cx="45.3787" cy="352.949" r="7.19122" fill="#01BAEF"/>
<circle cx="45.3787" cy="391.136" r="7.19122" fill="#01BAEF"/>
<circle cx="45.3787" cy="429.324" r="7.19122" fill="#01BAEF"/>
<circle cx="45.3787" cy="467.512" r="7.19122" fill="#01BAEF"/>
<circle cx="83.5662" cy="352.949" r="7.19122" fill="#01BAEF"/>
<circle cx="83.5662" cy="391.136" r="7.19122" fill="#01BAEF"/>
<circle cx="83.5662" cy="429.324" r="7.19122" fill="#01BAEF"/>
<circle cx="83.5662" cy="467.512" r="7.19122" fill="#01BAEF"/>
<circle cx="121.756" cy="352.949" r="7.19122" fill="#01BAEF"/>
<circle cx="121.756" cy="391.136" r="7.19122" fill="#01BAEF"/>
<circle cx="121.756" cy="429.324" r="7.19122" fill="#01BAEF"/>
<circle cx="121.756" cy="467.512" r="7.19122" fill="#01BAEF"/>
<circle cx="159.943" cy="352.949" r="7.19122" fill="#01BAEF"/>
<circle cx="159.943" cy="391.136" r="7.19122" fill="#01BAEF"/>
<circle cx="159.943" cy="429.324" r="7.19122" fill="#01BAEF"/>
<circle cx="159.943" cy="467.512" r="7.19122" fill="#01BAEF"/>
<circle cx="198.131" cy="352.949" r="7.19122" fill="#01BAEF"/>
<circle cx="198.131" cy="391.136" r="7.19122" fill="#01BAEF"/>
<circle cx="198.131" cy="429.324" r="7.19122" fill="#01BAEF"/>
<circle cx="198.131" cy="467.512" r="7.19122" fill="#01BAEF"/>
<circle cx="236.318" cy="352.949" r="7.19122" fill="#01BAEF"/>
<circle cx="236.318" cy="391.136" r="7.19122" fill="#01BAEF"/>
<circle cx="236.318" cy="429.324" r="7.19122" fill="#01BAEF"/>
<circle cx="236.318" cy="467.512" r="7.19122" fill="#01BAEF"/>
<circle cx="274.506" cy="352.949" r="7.19122" fill="#01BAEF"/>
<circle cx="274.506" cy="391.136" r="7.19122" fill="#01BAEF"/>
<circle cx="274.506" cy="429.324" r="7.19122" fill="#01BAEF"/>
<circle cx="274.506" cy="467.512" r="7.19122" fill="#01BAEF"/>
<rect x="28.9688" y="88.1121" width="432.575" height="356.879" rx="11.2657" fill="white"/>
<rect x="51.7363" y="183.906" width="182.137" height="202.858" rx="4.2917" fill="url(#paint0_linear_202_560)"/>
<path fill-rule="evenodd" clip-rule="evenodd" d="M167.661 268.084C167.661 265.214 165.313 262.867 162.443 262.867H125.921C123.051 262.867 120.703 265.214 120.703 268.084V304.607C120.703 307.476 123.051 309.824 125.921 309.824H162.443C165.313 309.824 167.661 307.476 167.661 304.607V268.084ZM135.052 290.258L141.574 298.11L150.705 286.345L162.444 301.998H125.922L135.052 290.258Z" fill="white"/>
<path fill-rule="evenodd" clip-rule="evenodd" d="M256.639 210.738C256.639 208.367 258.56 206.446 260.93 206.446H352.422C354.792 206.446 356.714 208.367 356.714 210.738V220.937C356.714 223.307 354.792 225.229 352.422 225.229H260.93C258.56 225.229 256.639 223.307 256.639 220.937V210.738Z" fill="#279AF1"/>
<rect x="256.639" y="262.795" width="182.137" height="18.7831" rx="4.2917" fill="#E3E6EE"/>
<rect x="256.639" y="234.62" width="181.541" height="18.7831" rx="4.2917" fill="#E3E6EE"/>
<path fill-rule="evenodd" clip-rule="evenodd" d="M266.295 310.284C271.628 310.284 275.951 305.96 275.951 300.627C275.951 295.294 271.628 290.971 266.295 290.971C260.962 290.971 256.639 295.294 256.639 300.627C256.639 305.96 260.962 310.284 266.295 310.284Z" fill="#E3E6EE"/>
<path fill-rule="evenodd" clip-rule="evenodd" d="M331.531 310.283C336.864 310.283 341.188 305.96 341.188 300.627C341.188 295.294 336.864 290.97 331.531 290.97C326.198 290.97 321.875 295.294 321.875 300.627C321.875 305.96 326.198 310.283 331.531 310.283Z" fill="#E3E6EE"/>
<path fill-rule="evenodd" clip-rule="evenodd" d="M298.809 310.283C304.142 310.283 308.465 305.96 308.465 300.627C308.465 295.294 304.142 290.97 298.809 290.97C293.476 290.97 289.152 295.294 289.152 300.627C289.152 305.96 293.476 310.283 298.809 310.283Z" fill="#E3E6EE"/>
<rect x="324.941" y="337.927" width="113.835" height="28.1747" rx="4.2917" fill="url(#paint1_linear_202_560)"/>
<path fill-rule="evenodd" clip-rule="evenodd" d="M256.639 342.219C256.639 339.849 258.56 337.927 260.93 337.927H309.265C311.635 337.927 313.556 339.849 313.556 342.219V361.81C313.556 364.181 311.635 366.102 309.265 366.102H260.93C258.56 366.102 256.639 364.181 256.639 361.81V342.219Z" fill="#E3E6EE"/>
<path d="M28.9688 99.3778C28.9688 93.156 34.0126 88.1121 40.2345 88.1121H450.278C456.5 88.1121 461.543 93.156 461.543 99.3778V125.678H28.9688V99.3778Z" fill="url(#paint2_linear_202_560)"/>
<path fill-rule="evenodd" clip-rule="evenodd" d="M81.5424 114.803C85.9865 114.803 89.5893 111.2 89.5893 106.756C89.5893 102.312 85.9865 98.7088 81.5424 98.7088C77.0982 98.7088 73.4954 102.312 73.4954 106.756C73.4954 111.2 77.0982 114.803 81.5424 114.803ZM52.8692 114.803C57.3134 114.803 60.9161 111.2 60.9161 106.756C60.9161 102.312 57.3134 98.7091 52.8692 98.7091C48.425 98.7091 44.8223 102.312 44.8223 106.756C44.8223 111.2 48.425 114.803 52.8692 114.803ZM118.263 106.756C118.263 111.2 114.66 114.803 110.216 114.803C105.771 114.803 102.169 111.2 102.169 106.756C102.169 102.312 105.771 98.7088 110.216 98.7088C114.66 98.7088 118.263 102.312 118.263 106.756Z" fill="white"/>
<path fill-rule="evenodd" clip-rule="evenodd" d="M599.068 201.819C605.29 201.819 610.334 196.775 610.334 190.553V146.494C610.334 140.272 605.29 135.228 599.068 135.228L505.493 135.228C499.271 135.228 494.227 140.272 494.227 146.494V157.414L477.781 167.894C477.451 168.105 477.451 168.588 477.781 168.799L494.227 179.279V190.553C494.227 196.775 499.271 201.819 505.493 201.819L599.068 201.819Z" fill="white"/>
<path fill-rule="evenodd" clip-rule="evenodd" d="M576.186 185.575C576.186 187.946 574.264 189.867 571.894 189.867H512.179C509.809 189.867 507.887 187.946 507.887 185.575V177.084C507.887 174.714 509.809 172.792 512.179 172.792H571.894C574.264 172.792 576.186 174.714 576.186 177.084V185.575Z" fill="#E3E6EE"/>
<path fill-rule="evenodd" clip-rule="evenodd" d="M598.381 159.964C598.381 162.334 596.459 164.256 594.089 164.256H511.36C508.99 164.256 507.068 162.334 507.068 159.964V151.473C507.068 149.102 508.99 147.181 511.36 147.181H594.089C596.459 147.181 598.381 149.102 598.381 151.473V159.964Z" fill="#279AF1"/>
<rect x="442.682" y="-3.05176e-05" width="50.2106" height="50.2106" rx="11.2657" fill="url(#paint3_linear_202_560)"/>
<rect x="453.82" y="11.5195" width="27.135" height="27.135" rx="11.2657" fill="url(#paint4_linear_202_560)"/>
<path fill-rule="evenodd" clip-rule="evenodd" d="M470.101 11.5215H459.247C457.754 11.5215 456.547 12.7426 456.547 14.235L456.533 35.943C456.533 37.4354 457.741 38.6565 459.233 38.6565H475.528C477.02 38.6565 478.241 37.4354 478.241 35.943V19.662L470.101 11.5215ZM472.813 33.2284H461.959V30.5149H472.813V33.2284ZM472.813 27.8016H461.959V25.0881H472.813V27.8016ZM468.744 21.0179V13.5558L476.206 21.0179H468.744Z" fill="white"/>
<path d="M267.158 46.2678C267.158 40.0459 272.202 35.0021 278.424 35.0021H327.954C334.176 35.0021 339.22 40.0459 339.22 46.2678V95.7984C339.22 102.02 334.176 107.064 327.954 107.064H278.424C272.202 107.064 267.158 102.02 267.158 95.7984V46.2678Z" fill="url(#paint5_linear_202_560)"/>
<path fill-rule="evenodd" clip-rule="evenodd" d="M323.832 87.0878V54.9769C323.832 52.4539 321.768 50.3896 319.245 50.3896H287.134C284.611 50.3896 282.547 52.4539 282.547 54.9769V87.0878C282.547 89.6108 284.611 91.6751 287.134 91.6751H319.245C321.768 91.6751 323.832 89.6108 323.832 87.0878ZM295.161 74.4738L300.895 81.3777L308.923 71.0334L319.244 84.7952H287.133L295.161 74.4738Z" fill="white"/>
<path d="M543.055 362.288C543.055 356.066 548.099 351.023 554.32 351.023H594.698C600.92 351.023 605.964 356.066 605.964 362.288V402.666C605.964 408.888 600.92 413.932 594.698 413.932H554.32C548.099 413.932 543.055 408.888 543.055 402.666V362.288Z" fill="url(#paint6_linear_202_560)"/>
<path d="M592.451 380.175C592.451 379.176 591.642 378.367 590.643 378.367H586.301L580.52 368.194C580.027 367.326 578.923 367.025 578.058 367.522C577.199 368.016 576.9 369.111 577.39 369.972L582.16 378.367H566.778L571.548 369.974C572.038 369.112 571.739 368.017 570.88 367.523C570.015 367.026 568.91 367.327 568.417 368.195L562.636 378.367H558.294C557.296 378.367 556.486 379.176 556.486 380.175C556.486 381.173 557.296 381.982 558.294 381.982H558.641L561.924 396.837C562.106 397.665 562.836 398.253 563.679 398.253H585.258C586.102 398.253 586.832 397.665 587.013 396.837L590.297 381.982H590.643C591.642 381.982 592.451 381.173 592.451 380.175ZM583.816 394.637H565.121L562.323 381.982H586.612L583.816 394.637Z" fill="white"/>
<rect x="251.973" y="391.9" width="181.409" height="27.8299" rx="8.81146" fill="#E1EFFF"/>
<path fill-rule="evenodd" clip-rule="evenodd" d="M273.314 410.969C276.261 410.969 278.65 408.661 278.65 405.815C278.65 402.969 276.261 400.661 273.314 400.661C270.367 400.661 267.979 402.969 267.979 405.815C267.979 408.661 270.367 410.969 273.314 410.969Z" fill="#E1EFFF"/>
<path fill-rule="evenodd" clip-rule="evenodd" d="M283.986 405.815C283.986 402.969 286.294 400.661 289.14 400.661H300.175C303.021 400.661 305.329 402.969 305.329 405.815C305.329 408.661 303.021 410.969 300.175 410.969H289.14C286.294 410.969 283.986 408.661 283.986 405.815Z" fill="#E1EFFF"/>
<path fill-rule="evenodd" clip-rule="evenodd" d="M316 405.815C316 402.969 318.307 400.661 321.154 400.661H342.86C345.706 400.661 348.013 402.969 348.013 405.815C348.013 408.661 345.706 410.969 342.86 410.969H321.154C318.307 410.969 316 408.661 316 405.815Z" fill="#E1EFFF"/>
<path fill-rule="evenodd" clip-rule="evenodd" d="M356.549 405.815C356.549 402.969 358.856 400.661 361.703 400.661H378.073C380.919 400.661 383.227 402.969 383.227 405.815C383.227 408.661 380.919 410.969 378.073 410.969H361.703C358.856 410.969 356.549 408.661 356.549 405.815Z" fill="#E1EFFF"/>
<path fill-rule="evenodd" clip-rule="evenodd" d="M390.697 405.815C390.697 402.969 393.005 400.661 395.851 400.661H412.221C415.068 400.661 417.375 402.969 417.375 405.815C417.375 408.661 415.068 410.969 412.221 410.969H395.851C393.005 410.969 390.697 408.661 390.697 405.815Z" fill="#E1EFFF"/>
<rect x="256.641" y="386.561" width="182.076" height="28.0117" rx="8.81146" fill="white" stroke="#DAE4ED" stroke-width="0.826075"/>
<path fill-rule="evenodd" clip-rule="evenodd" d="M273.648 405.903C276.778 405.903 279.317 403.365 279.317 400.234C279.317 397.103 276.778 394.565 273.648 394.565C270.517 394.565 267.979 397.103 267.979 400.234C267.979 403.365 270.517 405.903 273.648 405.903Z" fill="#574AE2"/>
<path fill-rule="evenodd" clip-rule="evenodd" d="M287.986 400.234C287.986 397.103 290.524 394.565 293.655 394.565H304.993C308.124 394.565 310.662 397.103 310.662 400.234C310.662 403.365 308.124 405.903 304.993 405.903H293.655C290.524 405.903 287.986 403.365 287.986 400.234Z" fill="#A3D5FF"/>
<path fill-rule="evenodd" clip-rule="evenodd" d="M319.334 400.234C319.334 397.103 321.872 394.565 325.003 394.565H347.679C350.81 394.565 353.348 397.103 353.348 400.234C353.348 403.365 350.81 405.903 347.679 405.903H325.003C321.872 405.903 319.334 403.365 319.334 400.234Z" fill="#DDEAF3"/>
<path fill-rule="evenodd" clip-rule="evenodd" d="M362.018 400.234C362.018 397.103 364.556 394.565 367.687 394.565H384.36C387.491 394.565 390.029 397.103 390.029 400.234C390.029 403.365 387.491 405.903 384.36 405.903H367.687C364.556 405.903 362.018 403.365 362.018 400.234Z" fill="#A3D5FF"/>
<path fill-rule="evenodd" clip-rule="evenodd" d="M399.367 400.234C399.367 397.103 401.905 394.565 405.036 394.565H421.71C424.841 394.565 427.379 397.103 427.379 400.234C427.379 403.365 424.841 405.903 421.71 405.903H405.036C401.905 405.903 399.367 403.365 399.367 400.234Z" fill="#9381FF"/>
<defs>
<linearGradient id="paint0_linear_202_560" x1="51.7363" y1="285.336" x2="233.873" y2="285.336" gradientUnits="userSpaceOnUse">
<stop stop-color="#A3D5FF"/>
<stop offset="1" stop-color="#01BAEF"/>
</linearGradient>
<linearGradient id="paint1_linear_202_560" x1="330.422" y1="343.154" x2="354.208" y2="396.496" gradientUnits="userSpaceOnUse">
<stop stop-color="#64E09E"/>
<stop offset="1" stop-color="#0CCA4A"/>
</linearGradient>
<linearGradient id="paint2_linear_202_560" x1="49.7964" y1="95.0814" x2="62.8181" y2="178.308" gradientUnits="userSpaceOnUse">
<stop stop-color="#64E09E"/>
<stop offset="1" stop-color="#0CCA4A"/>
</linearGradient>
<linearGradient id="paint3_linear_202_560" x1="442.682" y1="25.1054" x2="492.892" y2="25.1054" gradientUnits="userSpaceOnUse">
<stop stop-color="#A3D5FF"/>
<stop offset="1" stop-color="#C9F9FF"/>
</linearGradient>
<linearGradient id="paint4_linear_202_560" x1="453.82" y1="25.0871" x2="480.955" y2="25.0871" gradientUnits="userSpaceOnUse">
<stop stop-color="#A3D5FF"/>
<stop offset="1" stop-color="#C9F9FF"/>
</linearGradient>
<linearGradient id="paint5_linear_202_560" x1="267.158" y1="71.0333" x2="339.22" y2="71.0333" gradientUnits="userSpaceOnUse">
<stop stop-color="#A3D5FF"/>
<stop offset="1" stop-color="#01BAEF"/>
</linearGradient>
<linearGradient id="paint6_linear_202_560" x1="546.084" y1="362.694" x2="606.67" y2="396.322" gradientUnits="userSpaceOnUse">
<stop stop-color="#64E09E"/>
<stop offset="1" stop-color="#0CCA4A"/>
</linearGradient>
</defs>
</svg>
