<svg width="226" height="203" viewBox="0 0 226 203" fill="none" xmlns="http://www.w3.org/2000/svg">
<path fill-rule="evenodd" clip-rule="evenodd" d="M1.57422 142.794V150.396H8.27196V142.794H1.57422ZM1.57422 112.032H8.27196V104.341H1.57422V112.032ZM1.57422 81.2696H8.27196V73.5791H15.9625H23.653H31.3435H39.034H46.7245V81.2696H54.4151V88.9602V96.6507V104.341H46.7245V112.032H54.4151V119.722V127.413V135.103V142.794H46.7245V150.396H100.416C143.562 148.871 160.82 99.0576 134.148 72.3859C152.191 50.421 145.915 4.13784 98.8473 1H1.57422V81.2696ZM39.034 88.9602V96.6507V104.341H31.3435H23.653H15.9625V96.6507V88.9602H23.653H31.3435H39.034ZM15.9625 119.722H23.653H31.3435H39.034V127.413V135.103H31.3435H23.653H15.9625V127.413V119.722Z" fill="black"/>
<path d="M1.57422 150.396H1.18199V150.788H1.57422V150.396ZM1.57422 142.794V142.402H1.18199V142.794H1.57422ZM8.27196 150.396V150.788H8.66419V150.396H8.27196ZM8.27196 142.794H8.66419V142.402H8.27196V142.794ZM1.57422 112.032H1.18199V112.424H1.57422V112.032ZM8.27196 112.032V112.424H8.66419V112.032H8.27196ZM8.27196 104.341H8.66419V103.949H8.27196V104.341ZM1.57422 104.341V103.949H1.18199V104.341H1.57422ZM1.57422 81.2696H1.18199V81.6619H1.57422V81.2696ZM8.27196 81.2696V81.6619H8.66419V81.2696H8.27196ZM8.27196 73.5791V73.1869H7.87973V73.5791H8.27196ZM46.7245 73.5791H47.1168V73.1869H46.7245V73.5791ZM46.7245 81.2696H46.3323V81.6619H46.7245V81.2696ZM54.4151 81.2696H54.8073V80.8774H54.4151V81.2696ZM54.4151 104.341V104.733H54.8073V104.341H54.4151ZM46.7245 104.341V103.949H46.3323V104.341H46.7245ZM46.7245 112.032H46.3323V112.424H46.7245V112.032ZM54.4151 112.032H54.8073V111.639H54.4151V112.032ZM54.4151 142.794V143.186H54.8073V142.794H54.4151ZM46.7245 142.794V142.402H46.3323V142.794H46.7245ZM46.7245 150.396H46.3323V150.788H46.7245V150.396ZM100.416 150.396V150.788L100.43 150.788L100.416 150.396ZM134.148 72.3859L133.845 72.137L133.619 72.4118L133.871 72.6633L134.148 72.3859ZM98.8473 1L98.8734 0.608638L98.8604 0.60777H98.8473V1ZM1.57422 1V0.60777H1.18199V1H1.57422ZM39.034 88.9602H39.4263V88.5679H39.034V88.9602ZM39.034 104.341V104.733H39.4263V104.341H39.034ZM15.9625 104.341H15.5702V104.733H15.9625V104.341ZM15.9625 88.9602V88.5679H15.5702V88.9602H15.9625ZM15.9625 119.722V119.33H15.5702V119.722H15.9625ZM39.034 119.722H39.4263V119.33H39.034V119.722ZM39.034 135.103V135.495H39.4263V135.103H39.034ZM15.9625 135.103H15.5702V135.495H15.9625V135.103ZM1.96645 150.396V142.794H1.18199V150.396H1.96645ZM8.27196 150.004H1.57422V150.788H8.27196V150.004ZM8.66419 150.396V142.794H7.87973V150.396H8.66419ZM8.27196 142.402H1.57422V143.186H8.27196V142.402ZM1.57422 112.424H8.27196V111.639H1.57422V112.424ZM8.66419 112.032V104.341H7.87973V112.032H8.66419ZM8.27196 103.949H1.57422V104.733H8.27196V103.949ZM1.96645 112.032V104.341H1.18199V112.032H1.96645ZM1.57422 81.6619H8.27196V80.8774H1.57422V81.6619ZM8.66419 81.2696V73.5791H7.87973V81.2696H8.66419ZM8.27196 73.9714H15.9625V73.1869H8.27196V73.9714ZM15.9625 73.9714H23.653V73.1869H15.9625V73.9714ZM23.653 73.9714H31.3435V73.1869H23.653V73.9714ZM31.3435 73.9714H39.034V73.1869H31.3435V73.9714ZM39.034 73.9714H46.7245V73.1869H39.034V73.9714ZM46.3323 73.5791V81.2696H47.1168V73.5791H46.3323ZM46.7245 81.6619H54.4151V80.8774H46.7245V81.6619ZM54.0228 81.2696V88.9602H54.8073V81.2696H54.0228ZM54.0228 88.9602V96.6507H54.8073V88.9602H54.0228ZM54.0228 96.6507V104.341H54.8073V96.6507H54.0228ZM54.4151 103.949H46.7245V104.733H54.4151V103.949ZM46.3323 104.341V112.032H47.1168V104.341H46.3323ZM46.7245 112.424H54.4151V111.639H46.7245V112.424ZM54.0228 112.032V119.722H54.8073V112.032H54.0228ZM54.0228 119.722V127.413H54.8073V119.722H54.0228ZM54.0228 127.413V135.103H54.8073V127.413H54.0228ZM54.0228 135.103V142.794H54.8073V135.103H54.0228ZM54.4151 142.402H46.7245V143.186H54.4151V142.402ZM46.3323 142.794V150.396H47.1168V142.794H46.3323ZM100.416 150.004H46.7245V150.788H100.416V150.004ZM133.871 72.6633C160.296 99.0883 143.211 148.491 100.402 150.004L100.43 150.788C143.912 149.251 161.344 99.0268 134.425 72.1086L133.871 72.6633ZM98.8213 1.39136C122.206 2.95036 135.402 15.2096 140.544 29.7635C145.698 44.3501 142.774 61.2667 133.845 72.137L134.451 72.6349C143.565 61.5403 146.524 44.3328 141.284 29.5021C136.032 14.6388 122.556 2.18748 98.8734 0.608638L98.8213 1.39136ZM1.57422 1.39223H98.8473V0.60777H1.57422V1.39223ZM1.96645 81.2696V1H1.18199V81.2696H1.96645ZM39.4263 96.6507V88.9602H38.6418V96.6507H39.4263ZM39.4263 104.341V96.6507H38.6418V104.341H39.4263ZM31.3435 104.733H39.034V103.949H31.3435V104.733ZM23.653 104.733H31.3435V103.949H23.653V104.733ZM15.9625 104.733H23.653V103.949H15.9625V104.733ZM15.5702 96.6507V104.341H16.3547V96.6507H15.5702ZM15.5702 88.9602V96.6507H16.3547V88.9602H15.5702ZM23.653 88.5679H15.9625V89.3524H23.653V88.5679ZM31.3435 88.5679H23.653V89.3524H31.3435V88.5679ZM39.034 88.5679H31.3435V89.3524H39.034V88.5679ZM23.653 119.33H15.9625V120.114H23.653V119.33ZM31.3435 119.33H23.653V120.114H31.3435V119.33ZM39.034 119.33H31.3435V120.114H39.034V119.33ZM39.4263 127.413V119.722H38.6418V127.413H39.4263ZM39.4263 135.103V127.413H38.6418V135.103H39.4263ZM31.3435 135.495H39.034V134.711H31.3435V135.495ZM23.653 135.495H31.3435V134.711H23.653V135.495ZM15.9625 135.495H23.653V134.711H15.9625V135.495ZM15.5702 127.413V135.103H16.3547V127.413H15.5702ZM15.5702 119.722V127.413H16.3547V119.722H15.5702Z" fill="black"/>
<path d="M179.157 91.4661V148.749H157.669V91.4661H179.157ZM168.471 65.8984C171.382 65.8984 173.891 66.9326 175.997 69.001C178.142 71.0311 179.215 73.4442 179.215 76.2404C179.215 79.2281 178.2 81.6795 176.17 83.5947C174.178 85.5099 171.611 86.4675 168.471 86.4675C165.33 86.4675 162.744 85.5099 160.714 83.5947C158.722 81.6795 157.726 79.2281 157.726 76.2404C157.726 73.4442 158.78 71.0311 160.886 69.001C163.031 66.9326 165.559 65.8984 168.471 65.8984ZM210.93 70.3225V92.2705H220.583V114.965H210.93C210.93 119.524 211.639 122.665 213.056 124.388C214.512 126.112 217.155 126.974 220.985 126.974V149.554C219.874 149.592 219.051 149.611 218.514 149.611C213.65 149.611 209.053 148.481 204.725 146.221C200.435 143.961 196.988 140.897 194.383 137.028C191.089 132.087 189.442 125.537 189.442 117.379V70.3225H210.93Z" fill="black"/>
<path d="M11.9107 169.606C11.9107 170.383 11.7131 171.06 11.3177 171.639C10.9223 172.218 10.3646 172.67 9.64444 172.995C8.93843 173.32 8.10533 173.482 7.14515 173.482C5.70488 173.482 4.54701 173.15 3.67156 172.486C2.81022 171.823 2.37955 170.947 2.37955 169.86C2.37955 168.9 2.71844 168.032 3.39621 167.255C4.07398 166.478 4.9918 165.899 6.14967 165.518C5.02004 164.84 4.20813 164.198 3.71392 163.591C3.21971 162.984 2.9726 162.292 2.9726 161.515C2.9726 160.47 3.35385 159.637 4.11634 159.016C4.89296 158.38 5.90256 158.063 7.14515 158.063C7.97825 158.063 8.70544 158.197 9.32673 158.465C9.94803 158.733 10.4352 159.115 10.7882 159.609C11.1412 160.089 11.3177 160.647 11.3177 161.282C11.3177 162.059 11.0565 162.772 10.534 163.421C10.0116 164.071 9.27731 164.607 8.33125 165.031C9.26319 165.596 9.98333 166.132 10.4917 166.641C11.0141 167.135 11.3812 167.629 11.593 168.123C11.8048 168.603 11.9107 169.098 11.9107 169.606ZM4.24343 161.049C4.24343 161.543 4.37051 161.981 4.62468 162.362C4.87884 162.743 5.27421 163.125 5.81078 163.506C6.34735 163.873 7.03925 164.297 7.88646 164.777C8.536 164.452 9.04433 164 9.41145 163.421C9.7927 162.828 9.98333 162.143 9.98333 161.367C9.98333 160.477 9.72916 159.792 9.22083 159.312C8.7125 158.818 8.02061 158.571 7.14515 158.571C6.28381 158.571 5.58486 158.797 5.04828 159.249C4.51171 159.701 4.24343 160.301 4.24343 161.049ZM3.75628 169.775C3.75628 170.764 4.05986 171.547 4.66704 172.126C5.27421 172.691 6.10025 172.974 7.14515 172.974C8.17593 172.974 9.00903 172.712 9.64444 172.19C10.2799 171.653 10.5976 170.94 10.5976 170.051C10.5976 169.557 10.4775 169.098 10.2375 168.674C9.99745 168.236 9.58796 167.791 9.00903 167.34C8.43009 166.888 7.63936 166.372 6.63682 165.793C5.719 166.175 5.00592 166.711 4.49759 167.403C4.00338 168.081 3.75628 168.872 3.75628 169.775ZM14.3382 166.09V165.158H19.6333V166.09H14.3382ZM23.2357 173.185V158.359H26.1797C27.7047 158.359 28.8908 158.677 29.7381 159.312C30.5853 159.948 31.0089 160.83 31.0089 161.96C31.0089 162.793 30.7618 163.506 30.2676 164.099C29.7734 164.678 29.0815 165.073 28.1919 165.285V165.412C29.4062 165.568 30.3523 165.991 31.0301 166.683C31.722 167.361 32.0679 168.222 32.0679 169.267C32.0679 170.496 31.5949 171.456 30.6488 172.148C29.7028 172.839 28.3754 173.185 26.6669 173.185H23.2357ZM26.2009 158.867H24.6759V165.222H26.1797C28.4107 165.222 29.5263 164.163 29.5263 162.045C29.5263 159.926 28.4178 158.867 26.2009 158.867ZM26.6669 165.73H24.6759V172.677H26.6669C29.2509 172.677 30.5429 171.519 30.5429 169.204C30.5429 166.888 29.2509 165.73 26.6669 165.73ZM36.308 173.185V158.359H37.7482V173.185H36.308ZM46.6467 173.185V158.783C46.4349 158.783 45.9971 158.825 45.3335 158.91L41.1821 159.439V158.359H53.5515V159.439L49.4001 158.91C48.7365 158.825 48.2987 158.783 48.0869 158.783V173.185H46.6467ZM74.5195 171.364L74.3924 172.656C73.997 172.825 73.5169 172.974 72.9521 173.101C72.3873 173.228 71.8154 173.32 71.2365 173.376C70.6576 173.447 70.1422 173.482 69.6903 173.482C68.5466 173.482 67.4876 173.291 66.5133 172.91C65.539 172.515 64.6847 171.971 63.9504 171.279C63.2303 170.587 62.6655 169.775 62.256 168.843C61.8465 167.897 61.6418 166.874 61.6418 165.772C61.6418 164.671 61.8465 163.654 62.256 162.722C62.6655 161.776 63.2303 160.957 63.9504 160.265C64.6847 159.573 65.539 159.037 66.5133 158.656C67.4876 158.26 68.5466 158.063 69.6903 158.063C70.1563 158.063 70.6787 158.098 71.2577 158.168C71.8366 158.239 72.4014 158.338 72.9521 158.465C73.5028 158.578 73.9688 158.712 74.35 158.867L74.2441 160.054H74.117C73.5946 159.573 72.938 159.206 72.1473 158.952C71.3565 158.698 70.5375 158.571 69.6903 158.571C68.4195 158.571 67.2969 158.875 66.3226 159.482C65.3625 160.075 64.607 160.915 64.0563 162.002C63.5198 163.075 63.2515 164.332 63.2515 165.772C63.2515 167.227 63.5198 168.49 64.0563 169.564C64.607 170.637 65.3625 171.477 66.3226 172.084C67.2828 172.677 68.4054 172.974 69.6903 172.974C70.6505 172.974 71.5401 172.818 72.3591 172.508C73.1922 172.197 73.8699 171.816 74.3924 171.364H74.5195ZM77.2789 165.772C77.2789 164.685 77.4695 163.675 77.8507 162.743C78.2461 161.797 78.7897 160.978 79.4816 160.287C80.1877 159.581 81.0066 159.037 81.9386 158.656C82.8846 158.26 83.9013 158.063 84.9886 158.063C86.0758 158.063 87.0854 158.26 88.0174 158.656C88.9634 159.037 89.7824 159.581 90.4743 160.287C91.1803 160.978 91.7239 161.797 92.1052 162.743C92.5006 163.675 92.6982 164.685 92.6982 165.772C92.6982 166.86 92.5006 167.876 92.1052 168.822C91.7239 169.754 91.1803 170.573 90.4743 171.279C89.7824 171.971 88.9634 172.515 88.0174 172.91C87.0854 173.291 86.0758 173.482 84.9886 173.482C83.9013 173.482 82.8846 173.291 81.9386 172.91C81.0066 172.515 80.1877 171.971 79.4816 171.279C78.7897 170.573 78.2461 169.754 77.8507 168.822C77.4695 167.876 77.2789 166.86 77.2789 165.772ZM78.8886 165.772C78.8886 167.213 79.1428 168.476 79.6511 169.564C80.1594 170.637 80.8725 171.477 81.7903 172.084C82.7081 172.677 83.7742 172.974 84.9886 172.974C86.2029 172.974 87.269 172.677 88.1868 172.084C89.1046 171.477 89.8177 170.63 90.326 169.542C90.8344 168.455 91.0885 167.198 91.0885 165.772C91.0885 164.346 90.8344 163.096 90.326 162.023C89.8177 160.936 89.1046 160.089 88.1868 159.482C87.269 158.875 86.2029 158.571 84.9886 158.571C83.7742 158.571 82.7081 158.875 81.7903 159.482C80.8866 160.075 80.1735 160.915 79.6511 162.002C79.1428 163.075 78.8886 164.332 78.8886 165.772ZM96.822 173.185L97.3515 158.063H97.6056L108.259 170.94H108.386L107.921 158.359H109.361L108.831 173.482H108.577L97.9233 160.604H97.7963L98.2622 173.185H96.822ZM113.264 172.719L113.391 171.449H113.518C114.068 171.929 114.69 172.303 115.382 172.571C116.074 172.839 116.758 172.974 117.436 172.974C118.396 172.974 119.173 172.712 119.766 172.19C120.359 171.653 120.656 170.94 120.656 170.051C120.656 169.557 120.543 169.098 120.317 168.674C120.105 168.25 119.745 167.82 119.236 167.382C118.742 166.944 118.057 166.471 117.182 165.963C116.575 165.61 115.996 165.243 115.445 164.862C114.895 164.466 114.443 164.014 114.09 163.506C113.737 162.984 113.56 162.362 113.56 161.642C113.56 160.569 113.948 159.708 114.725 159.058C115.502 158.394 116.525 158.063 117.796 158.063C118.361 158.063 118.968 158.126 119.618 158.253C120.267 158.366 120.769 158.514 121.122 158.698L121.016 159.884H120.889C120.084 159.009 119.053 158.571 117.796 158.571C116.893 158.571 116.165 158.804 115.615 159.27C115.064 159.722 114.789 160.336 114.789 161.113C114.789 161.692 114.937 162.193 115.233 162.616C115.544 163.026 115.939 163.4 116.419 163.739C116.9 164.064 117.415 164.381 117.966 164.692C118.601 165.059 119.215 165.448 119.808 165.857C120.416 166.266 120.91 166.761 121.291 167.34C121.686 167.904 121.884 168.618 121.884 169.479C121.884 170.27 121.7 170.969 121.333 171.576C120.966 172.169 120.444 172.635 119.766 172.974C119.102 173.313 118.326 173.482 117.436 173.482C116.871 173.482 116.208 173.411 115.445 173.27C114.683 173.129 113.956 172.945 113.264 172.719ZM125.844 158.359H127.284V167.297C127.284 169.006 127.701 170.34 128.534 171.3C129.381 172.246 130.567 172.719 132.092 172.719C133.053 172.719 133.886 172.536 134.592 172.169C135.312 171.788 135.862 171.265 136.244 170.601C136.639 169.938 136.823 169.175 136.794 168.314L136.434 158.359H137.875L137.515 168.314C137.458 170.008 136.95 171.293 135.99 172.169C135.044 173.044 133.688 173.482 131.923 173.482C130.017 173.482 128.527 172.931 127.454 171.83C126.381 170.714 125.844 169.189 125.844 167.255V158.359ZM142.955 158.359H144.395V172.762C144.663 172.762 145.087 172.719 145.666 172.635L149.182 172.105V173.185H142.955V158.359ZM155.052 173.185V158.783C154.84 158.783 154.402 158.825 153.738 158.91L149.587 159.439V158.359H161.956V159.439L157.805 158.91C157.141 158.825 156.704 158.783 156.492 158.783V173.185H155.052ZM161.932 173.185L167.63 158.359H168.943L174.641 173.185H173.095L170.468 166.238H165.66L163.479 173.185H161.932ZM167.778 159.461L165.808 165.73H170.278L167.905 159.461H167.778ZM177.759 173.185L178.288 158.063H178.542L189.196 170.94H189.323L188.857 158.359H190.297L189.768 173.482H189.514L178.86 160.604H178.733L179.199 173.185H177.759ZM207.311 171.364L207.184 172.656C206.788 172.825 206.308 172.974 205.744 173.101C205.179 173.228 204.607 173.32 204.028 173.376C203.449 173.447 202.934 173.482 202.482 173.482C201.338 173.482 200.279 173.291 199.305 172.91C198.33 172.515 197.476 171.971 196.742 171.279C196.022 170.587 195.457 169.775 195.047 168.843C194.638 167.897 194.433 166.874 194.433 165.772C194.433 164.671 194.638 163.654 195.047 162.722C195.457 161.776 196.022 160.957 196.742 160.265C197.476 159.573 198.33 159.037 199.305 158.656C200.279 158.26 201.338 158.063 202.482 158.063C202.948 158.063 203.47 158.098 204.049 158.168C204.628 158.239 205.193 158.338 205.744 158.465C206.294 158.578 206.76 158.712 207.141 158.867L207.036 160.054H206.908C206.386 159.573 205.729 159.206 204.939 158.952C204.148 158.698 203.329 158.571 202.482 158.571C201.211 158.571 200.088 158.875 199.114 159.482C198.154 160.075 197.398 160.915 196.848 162.002C196.311 163.075 196.043 164.332 196.043 165.772C196.043 167.227 196.311 168.49 196.848 169.564C197.398 170.637 198.154 171.477 199.114 172.084C200.074 172.677 201.197 172.974 202.482 172.974C203.442 172.974 204.331 172.818 205.15 172.508C205.984 172.197 206.661 171.816 207.184 171.364H207.311ZM214.72 173.185V166.916L209.467 158.359H211.077L215.8 166.111H215.927L219.697 158.359H221.307L216.245 166.619V173.185H214.72Z" fill="black"/>
<line y1="179.857" x2="222.787" y2="179.857" stroke="black" stroke-width="0.784461"/>
<path d="M10.5615 184.994H10.776L10.8526 184.963L10.9292 184.994H11.0824C11.6953 184.994 12.4154 185.137 13.2428 185.423C14.0599 185.821 14.5451 186.107 14.6983 186.281L15.4338 186.787C15.5257 186.879 15.5819 186.94 15.6023 186.971V187.001H15.587C15.2703 186.776 15.0762 186.664 15.0047 186.664H14.9894L14.9435 186.695V186.71C14.9435 186.843 15.0967 187.006 15.4031 187.2L16.0313 187.966C16.1539 188.222 16.3275 188.635 16.5522 189.207C16.6544 189.432 16.7412 189.545 16.8127 189.545L16.874 189.483V189.453C16.874 189.402 16.8484 189.35 16.7974 189.299L16.874 189.207H16.9199C17.1855 190.157 17.3183 190.832 17.3183 191.23L17.3796 192.21L17.3643 192.302H17.2877H17.257C17.114 192.496 17.0017 192.777 16.9199 193.145C16.4296 193.829 16.1845 194.233 16.1845 194.355H16.1998C16.353 194.355 16.5216 194.161 16.7054 193.773L16.782 193.758L16.7974 193.773C16.6033 194.212 16.445 194.432 16.3224 194.432C15.7402 194.953 15.1273 195.402 14.4838 195.78C14.1876 196.036 13.8046 196.22 13.3347 196.332C12.7627 196.383 12.395 196.455 12.2316 196.546L12.109 196.577C11.8843 196.526 11.2663 196.46 10.2551 196.378C10.061 196.317 9.78012 196.286 9.4124 196.286C9.28983 196.286 9.20301 196.306 9.15194 196.347C9.11108 196.347 9.01915 196.276 8.87615 196.133H8.81486C8.78422 196.133 8.74847 196.214 8.70761 196.378H8.67697V196.393C8.59526 196.373 8.5544 196.276 8.5544 196.102L8.60036 194.999H8.58504V194.968C8.60547 194.917 8.64122 194.892 8.69229 194.892L9.28983 194.953H9.35112C9.4124 194.953 9.4839 194.943 9.56562 194.922L10.2398 195.091L10.301 195.03V194.953L10.2551 194.739C10.2857 194.585 10.301 194.289 10.301 193.85C10.301 193.278 10.25 192.992 10.1478 192.992L10.1325 192.915C10.1836 190.975 10.2704 189.269 10.393 187.798C10.4543 187.471 10.4849 187.241 10.4849 187.108V186.971C10.4849 186.776 10.3981 186.679 10.2244 186.679H9.70351C9.6933 186.679 9.68819 186.71 9.68819 186.771L9.61158 186.787L8.53908 186.741L8.15604 186.787L8.11007 186.725V186.005C8.11007 185.566 8.16115 185.346 8.26329 185.346C8.40629 185.234 8.63101 185.178 8.93744 185.178C9.41751 185.055 9.95887 184.994 10.5615 184.994ZM10.8986 185.117L10.1785 185.178L10.2244 185.224H10.5615C10.8067 185.224 10.9292 185.198 10.9292 185.147L10.8986 185.117ZM9.4124 185.27C9.43283 185.321 9.6269 185.367 9.99462 185.408H10.1172L10.1478 185.346C10.0048 185.234 9.9078 185.178 9.85673 185.178C9.56051 185.198 9.4124 185.229 9.4124 185.27ZM11.7719 185.438L11.7413 185.469C11.9251 185.561 12.0324 185.607 12.063 185.607H12.109L12.1549 185.576C12.063 185.484 11.9609 185.438 11.8485 185.438H11.7719ZM8.60036 185.592L8.5544 185.653V185.684C8.57483 185.765 8.59015 185.806 8.60036 185.806H8.64633C8.70761 185.745 8.7689 185.714 8.83019 185.714L9.02936 185.729V185.684L8.75358 185.592H8.60036ZM12.4614 185.622H12.4001V185.668H12.4614V185.622ZM13.1202 185.653H13.0283V185.668C13.0998 185.719 13.4981 185.898 14.2234 186.204L14.3919 186.342H14.4379C14.4379 186.199 14.065 185.975 13.3194 185.668L13.1202 185.653ZM10.5309 185.898V185.913C10.5309 186.015 10.7913 186.067 11.3123 186.067C11.4144 185.964 11.491 185.913 11.5421 185.913C11.7464 185.913 11.8485 185.898 11.8485 185.867V185.821L11.7413 185.806H11.6953L11.1897 185.867C11.0876 185.816 11.0058 185.791 10.9446 185.791H10.8986C10.6534 185.801 10.5309 185.837 10.5309 185.898ZM12.921 185.944H12.8751V185.959C12.9159 186 13.1457 186.107 13.5645 186.281H13.6105L13.6718 186.204C13.6718 186.133 13.4215 186.046 12.921 185.944ZM8.92211 186.005L8.87615 186.051L8.92211 186.097H8.96808L8.99872 186.051L8.96808 186.005H8.92211ZM13.9476 186.25H13.8403C13.8403 186.322 13.7841 186.358 13.6718 186.358V186.419C13.682 186.439 13.8556 186.531 14.1927 186.695L14.1621 186.741C14.1825 186.802 14.2438 186.853 14.3459 186.894H14.4379L14.5757 186.833L14.729 186.863V186.833C14.729 186.822 14.6166 186.782 14.3919 186.71V186.695C14.3919 186.674 14.4072 186.664 14.4379 186.664L14.4685 186.633V186.618C14.2642 186.414 14.0906 186.291 13.9476 186.25ZM8.73826 186.342L8.69229 186.388L8.90679 186.434H8.92211V186.419C8.89147 186.368 8.84551 186.342 8.78422 186.342H8.73826ZM9.07533 186.45L9.12129 186.511H9.21322C9.26429 186.511 9.30004 186.485 9.32047 186.434V186.404H9.22854C9.14683 186.404 9.09576 186.419 9.07533 186.45ZM11.5114 186.955L11.5727 187.829C11.5727 188.452 11.537 188.763 11.4655 188.763C11.4246 188.579 11.394 188.487 11.3736 188.487C11.3327 188.498 11.3123 188.538 11.3123 188.61V188.993C11.3123 189.136 11.3378 189.207 11.3889 189.207L11.4961 189.177L11.5114 189.207C11.4808 189.35 11.4655 189.626 11.4655 190.035L11.5268 192.241C11.5268 193.528 11.4144 194.478 11.1897 195.091V195.183C11.1897 195.265 11.6136 195.351 12.4614 195.443C13.0027 195.443 13.6462 195.239 14.3919 194.83C15.0047 194.289 15.3418 193.906 15.4031 193.681C15.5359 193.467 15.6789 192.895 15.8321 191.965V191.827C15.8321 190.837 15.7708 190.229 15.6483 190.004L15.0047 188.472C14.6268 187.89 14.2744 187.532 13.9476 187.4C12.6606 186.889 11.9813 186.633 11.9098 186.633C11.6442 186.756 11.5114 186.863 11.5114 186.955ZM10.6841 186.725C10.6841 186.787 10.7249 186.817 10.8067 186.817H10.8373L10.9139 186.725V186.679H10.7147C10.6943 186.679 10.6841 186.695 10.6841 186.725ZM13.3653 186.741V186.771C13.4879 186.904 13.6003 186.971 13.7024 186.971V186.894C13.539 186.792 13.4266 186.741 13.3653 186.741ZM14.7136 187.047V187.078C14.7341 187.119 14.8005 187.175 14.9128 187.246H14.9588V187.231C14.9588 187.149 14.8771 187.088 14.7136 187.047ZM15.7708 187.277H15.7861C15.8985 187.297 16.0773 187.558 16.3224 188.058C16.4654 188.201 16.5369 188.303 16.5369 188.365V188.411H16.5063C16.4041 188.411 16.2764 188.252 16.1232 187.936C16.1232 187.844 16.0058 187.624 15.7708 187.277ZM14.8209 187.43V187.507C14.872 187.588 15.015 187.716 15.2499 187.89H15.2959L15.3265 187.844V187.798C15.1426 187.502 15.0405 187.354 15.0201 187.354H14.9588C14.8975 187.354 14.8515 187.379 14.8209 187.43ZM10.6075 187.905L10.6381 188.074V188.227L10.6841 188.288H10.7147C10.7556 188.288 10.776 188.171 10.776 187.936C10.776 187.701 10.7556 187.522 10.7147 187.4H10.6841C10.6534 187.4 10.6279 187.568 10.6075 187.905ZM16.5063 188.518V188.487H16.5369C16.7208 188.722 16.8127 188.921 16.8127 189.085V189.131H16.782C16.7003 189.131 16.6084 188.927 16.5063 188.518ZM15.7095 188.564H15.6329V188.748C15.7351 189.218 15.9087 189.591 16.1539 189.866H16.1845C16.0211 189.243 15.8628 188.809 15.7095 188.564ZM10.5615 188.671H10.5309L10.4849 188.855V188.901H10.5309L10.5615 188.748V188.671ZM11.4655 188.901L11.5114 188.886H11.5421V188.932L11.5114 188.978H11.4655V188.901ZM10.4083 191.138V191.322C10.4083 191.598 10.4236 191.812 10.4543 191.965H10.5155L10.6381 190.54C10.6381 190.163 10.6024 189.693 10.5309 189.131C10.4492 189.131 10.4083 189.8 10.4083 191.138ZM16.6901 189.805L16.6441 189.836V189.866L16.6595 189.897C16.6186 189.979 16.5982 190.05 16.5982 190.111L16.7361 190.571H16.7974C16.8586 190.438 16.8893 190.336 16.8893 190.265V190.157C16.8382 189.922 16.7769 189.805 16.7054 189.805H16.6901ZM16.1845 190.923H16.1232L16.0926 191.015V191.307C16.0926 191.674 16.0415 192.027 15.9394 192.364V192.41L15.97 192.425H16.0313C16.113 192.425 16.1896 192.282 16.2611 191.996C16.302 191.955 16.3224 191.889 16.3224 191.797V191.506C16.3224 191.118 16.2764 190.923 16.1845 190.923ZM17.3183 192.624V192.563H17.3336L17.3643 192.685C17.3643 192.777 17.2366 193.079 16.9812 193.589L16.9199 193.635H16.8893C16.9404 193.452 17.0834 193.114 17.3183 192.624ZM16.0619 193.329V193.344H16.0926C16.1641 193.344 16.2662 193.278 16.399 193.145V193.13C16.399 193.038 16.3735 192.982 16.3224 192.961H16.3071C16.1436 193.125 16.0619 193.247 16.0619 193.329ZM11.2969 193.344H11.2357L11.2203 193.543V193.574L11.2357 193.666H11.251L11.2969 193.62V193.344ZM15.3878 194.432V194.509H15.4491C15.97 194.08 16.256 193.738 16.3071 193.482V193.452C15.9189 193.635 15.6125 193.962 15.3878 194.432ZM10.6228 194.616L10.6381 194.723H10.6688C10.7505 194.723 10.7964 194.687 10.8067 194.616C10.7658 194.115 10.7249 193.865 10.6841 193.865C10.6432 193.865 10.6228 194.115 10.6228 194.616ZM14.8056 194.677L14.8209 194.723H14.8822C14.923 194.713 14.9639 194.677 15.0047 194.616V194.555C15.0047 194.544 14.9843 194.539 14.9435 194.539C14.8924 194.539 14.8464 194.585 14.8056 194.677ZM14.6983 194.693L14.637 194.739L14.6677 194.784H14.7136L14.7596 194.739V194.693H14.6983ZM13.3041 195.75V195.78H13.3347C13.7739 195.78 14.4634 195.479 15.4031 194.876L15.4338 194.846V194.83C14.78 195.035 14.3204 195.229 14.0548 195.413C13.636 195.545 13.3858 195.658 13.3041 195.75ZM8.90679 195.091L8.84551 195.152L8.87615 195.259C8.81486 195.433 8.78422 195.566 8.78422 195.658V195.704L8.84551 195.78H8.87615L8.93744 195.704V195.505C8.93744 195.392 8.97829 195.336 9.06001 195.336H9.22854L9.27451 195.305V195.244C9.27451 195.142 9.17747 195.091 8.9834 195.091H8.90679ZM9.70351 195.305L9.65755 195.336V195.367L9.70351 195.413H9.79544L9.8414 195.382C9.82098 195.331 9.77501 195.305 9.70351 195.305ZM9.88737 195.658V195.688C9.88737 195.75 10.1529 195.857 10.6841 196.01L11.1284 196.056C11.2714 196.036 11.3429 196.01 11.3429 195.98V195.934C10.5053 195.75 10.0202 195.658 9.88737 195.658ZM9.12129 195.658L9.07533 195.704L9.12129 195.75L9.16726 195.688V195.658H9.12129ZM11.7413 195.826L11.6953 195.857C11.6953 195.908 11.8843 195.939 12.2622 195.949H12.4614L12.492 195.934V195.903C12.492 195.852 12.3797 195.826 12.1549 195.826H11.7413ZM13.396 195.903H13.5952L13.6565 195.842V195.826H13.5952C13.4624 195.837 13.396 195.862 13.396 195.903ZM11.5881 195.98H11.5268V196.01H11.5881V195.98ZM12.2622 196.225L11.7413 196.286V196.332C11.9251 196.393 12.063 196.424 12.1549 196.424H12.2316C12.3746 196.424 12.4512 196.378 12.4614 196.286C12.4205 196.245 12.3541 196.225 12.2622 196.225ZM21.5164 188.166C21.9454 188.166 22.4663 188.349 23.0792 188.717C23.6001 189.105 23.8606 189.371 23.8606 189.514C24.2691 190.372 24.4734 190.888 24.4734 191.061L24.4888 191.184C24.3355 191.541 24.2589 191.787 24.2589 191.919L24.167 191.935H22.8647C22.7421 191.935 22.594 191.95 22.4204 191.981C20.9495 191.858 19.9178 191.797 19.3254 191.797H19.0037C18.8811 191.981 18.8198 192.113 18.8198 192.195C18.8913 192.308 18.9271 192.486 18.9271 192.731C18.9271 193.12 18.9883 193.349 19.1109 193.421L19.1262 193.497V193.513L19.0343 193.467V193.513L19.1722 193.666C19.1722 193.799 19.2641 193.967 19.448 194.172C19.7851 194.764 20.1528 195.132 20.5511 195.275C20.8882 195.387 21.2712 195.443 21.7002 195.443C21.7717 195.443 21.9199 195.377 22.1446 195.244C22.3284 195.203 22.7166 194.871 23.309 194.248V194.202C23.309 194.182 23.2375 194.161 23.0945 194.141L23.0639 194.064C23.2988 193.615 23.5797 193.319 23.9065 193.176C23.9985 193.268 24.1874 193.411 24.4734 193.605C24.6981 193.952 24.9995 194.361 25.3774 194.83V194.892C25.0505 195.321 24.8156 195.535 24.6726 195.535H24.6113C24.6113 195.311 24.4734 195.183 24.1976 195.152C24.1466 195.152 23.9219 195.321 23.5235 195.658C23.2886 195.842 22.8851 196.015 22.3131 196.179C21.6492 196.312 21.1793 196.378 20.9035 196.378L20.0302 196.071C19.5399 196.071 19.0905 195.806 18.6819 195.275C18.5083 195.091 18.3653 194.871 18.2529 194.616C18.2529 194.534 18.1405 194.11 17.9158 193.344C17.8443 193.048 17.8086 192.762 17.8086 192.486V192.471C17.8086 191.112 18.2172 189.922 19.0343 188.901C19.1364 188.646 19.3714 188.457 19.7391 188.334C19.9842 188.263 20.2805 188.206 20.6277 188.166C20.7197 188.125 21.0159 188.125 21.5164 188.166ZM20.1068 188.487V188.503H20.1374C20.3009 188.503 20.6073 188.446 21.0567 188.334C21.1487 188.324 21.1946 188.298 21.1946 188.258L21.1487 188.212H21.1333C20.8371 188.212 20.5052 188.293 20.1374 188.457L20.1068 188.487ZM19.4939 188.748V188.763L19.5399 188.794H19.5552C19.7595 188.743 19.8617 188.692 19.8617 188.641V188.549L19.8004 188.487H19.7697C19.5859 188.549 19.4939 188.635 19.4939 188.748ZM21.8535 188.595H21.3938V188.625C21.3938 188.666 21.6032 188.697 22.022 188.717H22.0373V188.656C22.0373 188.635 21.976 188.615 21.8535 188.595ZM20.7656 188.824V188.84C20.7656 188.881 20.975 188.932 21.3938 188.993L21.4245 188.978V188.916C21.3427 188.804 21.2048 188.748 21.0108 188.748H20.9648C20.832 188.758 20.7656 188.784 20.7656 188.824ZM21.7002 188.916V188.932C22.2825 189.269 22.594 189.437 22.6349 189.437H22.6502L22.8034 189.376L22.8953 189.407L22.9106 189.376V189.361C22.8698 189.33 22.783 189.299 22.6502 189.269L22.3437 189.131C22.262 188.957 22.0986 188.87 21.8535 188.87H21.8075C21.736 188.881 21.7002 188.896 21.7002 188.916ZM19.877 189.361C19.9791 189.279 20.1834 189.192 20.4898 189.1V189.07L20.4745 189.039H20.3213C20.0251 189.121 19.877 189.228 19.877 189.361ZM19.0649 190.372V190.418C19.0649 190.53 19.9944 190.658 21.8535 190.801L22.0067 190.847L22.2059 190.832C22.6144 190.964 22.8902 191.031 23.0332 191.031C23.0332 191.061 23.0639 191.087 23.1251 191.107C23.1864 191.015 23.2171 190.929 23.2171 190.847V190.556C23.2171 190.423 22.9617 190.127 22.451 189.667C22.2161 189.432 21.9505 189.299 21.6543 189.269L21.1333 189.177C20.2856 189.35 19.7289 189.56 19.4633 189.805C19.3509 190.02 19.2182 190.208 19.0649 190.372ZM19.2335 189.453V189.483H19.2641C19.3969 189.453 19.4633 189.417 19.4633 189.376V189.361H19.3867C19.3356 189.361 19.2846 189.391 19.2335 189.453ZM22.8953 189.667C22.9157 189.749 22.9617 189.79 23.0332 189.79H23.0639L23.0945 189.744V189.652L23.0332 189.575C22.9413 189.575 22.8953 189.606 22.8953 189.667ZM18.9424 189.744L18.9117 189.79V189.805H18.9424L19.0037 189.759V189.744H18.9424ZM23.2784 189.866H23.2171C23.3294 190.203 23.4111 190.387 23.4622 190.418H23.5235L23.5695 190.387C23.4878 190.06 23.4009 189.897 23.309 189.897L23.2784 189.866ZM19.0803 190.142C19.1416 190.132 19.1722 190.091 19.1722 190.02V190.004C19.1109 190.025 19.0803 190.071 19.0803 190.142ZM23.7993 190.556L23.7533 190.586V190.694L23.7993 190.755C23.8401 190.745 23.8606 190.709 23.8606 190.648V190.586L23.8453 190.556H23.7993ZM18.9117 190.77V190.832L18.9424 190.862H18.973C19.0445 190.832 19.1058 190.775 19.1569 190.694V190.648H19.0803C19.019 190.648 18.9628 190.689 18.9117 190.77ZM18.2835 190.678C18.2018 190.76 18.1303 190.964 18.069 191.291H18.0997C18.161 191.291 18.2529 191.112 18.3755 190.755C18.355 190.704 18.3244 190.678 18.2835 190.678ZM19.8463 190.862V190.908C20.0404 191.041 20.3928 191.107 20.9035 191.107H21.0414L21.2406 191.092V191.031C20.8218 190.939 20.3571 190.883 19.8463 190.862ZM22.6502 191.261H22.6042V191.307H22.6502V191.261ZM19.6931 191.383V191.414C19.8974 191.465 20.4388 191.516 21.3172 191.567V191.582V191.598L20.9955 191.644C20.9955 191.674 21.1282 191.69 21.3938 191.69C21.8228 191.69 22.0373 191.669 22.0373 191.628C22.0373 191.526 21.2559 191.444 19.6931 191.383ZM18.1457 191.49H18.069V191.582C18.069 191.644 18.0844 191.674 18.115 191.674C18.1661 191.674 18.1967 191.623 18.2069 191.521L18.1457 191.49ZM19.3867 191.521L19.3101 191.536V191.628H19.3867V191.567V191.536V191.521ZM18.8964 191.644V191.659H18.9117L19.1722 191.628V191.598L19.1262 191.536H19.0803C18.9883 191.536 18.9271 191.572 18.8964 191.644ZM22.6195 191.674C22.6195 191.715 22.7115 191.736 22.8953 191.736L23.0332 191.72V191.69C23.0332 191.649 22.9362 191.628 22.7421 191.628C22.6604 191.649 22.6195 191.664 22.6195 191.674ZM18.069 192.073V192.119V192.134C18.0588 192.165 18.0537 192.236 18.0537 192.348V192.41C18.0537 192.594 18.1048 192.757 18.2069 192.9H18.2223C18.2223 192.41 18.1712 192.134 18.069 192.073ZM18.3448 193.406H18.2989V193.436L18.3448 193.467H18.3755V193.436L18.3448 193.406ZM18.4521 193.666L18.4368 193.681V193.712C18.4776 193.875 18.5389 193.957 18.6206 193.957V193.942V193.911C18.6206 193.829 18.5644 193.748 18.4521 193.666ZM23.4469 193.804L23.4775 193.85H23.5541C23.6154 193.85 23.6512 193.829 23.6614 193.789L23.6001 193.727H23.5848C23.5133 193.727 23.4673 193.753 23.4469 193.804ZM23.0945 194.693L23.1251 194.708H23.1405C23.2528 194.708 23.3243 194.641 23.355 194.509V194.478C23.2426 194.478 23.1558 194.55 23.0945 194.693ZM24.167 194.662L24.1823 194.677H24.2283C24.2896 194.636 24.3202 194.58 24.3202 194.509H24.2743C24.2028 194.55 24.167 194.601 24.167 194.662ZM24.7033 194.509H24.6879V194.539C24.7186 194.662 24.7645 194.723 24.8258 194.723H24.8411L24.8718 194.693V194.677C24.8514 194.565 24.7952 194.509 24.7033 194.509ZM23.8146 194.83L23.8606 194.861C24.0138 194.81 24.0904 194.744 24.0904 194.662V194.631H24.0751C23.9321 194.631 23.8453 194.698 23.8146 194.83ZM22.6195 195.168H22.6502C22.7319 195.137 22.7779 195.086 22.7881 195.014L22.7727 194.999C22.6706 195.06 22.6195 195.116 22.6195 195.168ZM23.5235 195.244H23.5848C23.6869 195.152 23.738 195.086 23.738 195.045H23.7227C23.5899 195.086 23.5235 195.152 23.5235 195.244ZM19.1722 195.382H19.1262V195.443C19.1467 195.494 19.2335 195.551 19.3867 195.612L19.448 195.658C19.3356 195.484 19.2437 195.392 19.1722 195.382ZM20.2447 195.443H20.2294V195.459C20.2294 195.499 20.3366 195.545 20.5511 195.597L20.5665 195.581V195.551C20.4337 195.479 20.3264 195.443 20.2447 195.443ZM21.1487 195.612H21.1027V195.658H21.1487V195.612ZM22.7421 195.842C22.8442 195.842 22.926 195.765 22.9872 195.612H22.9413C22.8085 195.683 22.7421 195.76 22.7421 195.842ZM21.6696 195.995L21.3478 195.964H21.2866C21.1946 195.964 21.1436 195.985 21.1333 196.026V196.056L21.1946 196.102H21.4704C21.7871 196.102 22.1599 196.046 22.5889 195.934C22.5685 195.872 22.5072 195.842 22.405 195.842H22.3284C22.0833 195.842 21.8637 195.893 21.6696 195.995ZM28.6715 186.679L28.9013 186.618C29.1669 186.618 29.9279 186.771 31.1842 187.078C31.7767 187.354 32.1189 187.491 32.2108 187.491C32.2925 187.379 32.3334 187.236 32.3334 187.062V187.032V186.925C32.3334 186.792 32.4253 186.725 32.6091 186.725C32.7317 186.633 32.9054 186.587 33.1301 186.587C33.4365 186.587 33.5897 186.623 33.5897 186.695L33.7276 188.135V188.579C33.7276 188.947 33.6765 189.167 33.5744 189.238C33.4825 189.33 33.411 189.376 33.3599 189.376C32.7879 189.325 32.5019 189.248 32.5019 189.146C32.4304 188.901 32.2516 188.722 31.9656 188.61C30.9851 188.12 30.2803 187.874 29.8513 187.874L29.4223 187.844C28.9116 187.844 28.6102 187.941 28.5183 188.135C28.3957 188.298 28.3345 188.518 28.3345 188.794V188.809C28.3345 189.371 28.6256 189.836 29.2078 190.203C29.79 190.438 30.2956 190.556 30.7246 190.556C30.7246 190.637 30.9544 190.75 31.4141 190.893C31.506 191.046 31.7052 191.123 32.0116 191.123C32.3283 191.245 32.7828 191.633 33.3752 192.287L33.4365 192.348V192.41C33.4365 192.43 33.4059 192.44 33.3446 192.44V192.471C33.4876 192.777 33.5591 192.956 33.5591 193.007C33.5591 193.926 33.411 194.504 33.1148 194.739C32.982 195.014 32.7011 195.285 32.2721 195.551C31.792 195.99 31.3017 196.209 30.8012 196.209H30.265C29.458 196.087 29.0546 195.985 29.0546 195.903C28.5847 195.576 28.314 195.413 28.2425 195.413C27.742 195.178 27.3947 194.933 27.2007 194.677H27.1394C27.0168 195.035 26.9147 195.213 26.8329 195.213C26.1894 195.111 25.8677 194.999 25.8677 194.876C25.8064 194.703 25.7707 194.258 25.7604 193.543L25.9137 192.594C25.9137 192.246 25.9545 192.073 26.0362 192.073L27.0168 191.965C27.0883 191.965 27.1598 192.246 27.2313 192.808L27.6603 193.589C27.6603 193.62 28.1148 193.926 29.0239 194.509C29.2486 194.764 29.5704 194.892 29.9892 194.892H30.5254C31.0668 194.892 31.4345 194.718 31.6286 194.371C31.8635 194.115 32.0371 193.743 32.1495 193.252V193.206C32.1495 192.91 31.889 192.537 31.3681 192.088C31.1434 191.833 30.8574 191.705 30.5101 191.705C30.3058 191.613 29.8462 191.516 29.1312 191.414L27.9054 190.786L27.3079 190.28C27.0526 189.892 26.9147 189.616 26.8942 189.453L26.9249 189.192L26.8636 188.61C26.8636 188.467 26.9504 188.298 27.1241 188.104C27.1241 187.982 27.3692 187.701 27.8595 187.262C28.3191 187.016 28.5898 186.822 28.6715 186.679ZM28.8247 186.833V186.894C28.8247 186.935 28.8911 186.971 29.0239 187.001C29.2997 186.981 29.4376 186.945 29.4376 186.894V186.833C29.4376 186.761 29.2946 186.725 29.0086 186.725C28.9269 186.725 28.8656 186.761 28.8247 186.833ZM32.8236 186.802V186.833C32.936 187.016 33.033 187.108 33.1148 187.108C33.1965 187.108 33.2578 187.057 33.2986 186.955V186.894C33.2986 186.833 33.1403 186.802 32.8236 186.802ZM33.3599 187.277L33.3139 187.338L33.3599 187.369H33.4365V187.277H33.3599ZM29.2537 187.507C29.2946 187.548 29.3457 187.568 29.407 187.568C29.5091 187.568 29.6163 187.512 29.7287 187.4L29.6521 187.338H29.4836C29.3303 187.338 29.2537 187.394 29.2537 187.507ZM31.3375 187.491V187.507C31.3375 187.537 31.3987 187.558 31.5213 187.568H31.5673V187.553C31.5673 187.532 31.4907 187.512 31.3375 187.491ZM29.9585 187.691L29.8972 187.752C29.8972 187.823 30.0811 187.869 30.4488 187.89V187.844C30.4488 187.803 30.2956 187.752 29.9892 187.691H29.9585ZM27.8135 188.166V188.181L27.8442 188.196H27.9054C28.1302 188.033 28.2425 187.9 28.2425 187.798H28.2272H28.1966C28.0842 187.798 27.9565 187.92 27.8135 188.166ZM32.3027 187.905L32.2721 187.936C32.4151 188.048 32.5785 188.125 32.7624 188.166L32.7777 188.135V188.104C32.7777 188.053 32.6296 187.987 32.3334 187.905H32.3027ZM27.7522 187.936L27.7063 187.951L27.7216 187.982V187.997L27.7829 187.982V187.936H27.7522ZM31.5213 188.058L31.506 188.074V188.104C31.8226 188.288 32.0218 188.38 32.1035 188.38V188.365C32.1035 188.303 31.9095 188.201 31.5213 188.058ZM27.3232 188.104H27.2466L27.2313 188.212V188.258L27.2466 188.288L27.3232 188.135V188.104ZM27.17 188.472L27.1241 188.487C27.1445 188.681 27.17 188.819 27.2007 188.901H27.2466V188.886L27.2313 188.472H27.17ZM27.5837 188.61L27.5224 188.656V188.702H27.5684L27.645 188.641V188.61H27.5837ZM32.7164 189.008L32.6551 189.039C32.7368 189.09 32.8849 189.116 33.0994 189.116L33.4059 189.1V189.039C33.222 189.018 33.033 189.008 32.839 189.008H32.7164ZM28.2272 189.866L28.1966 189.882V189.912L28.2272 189.958H28.3804V189.912C28.3702 189.882 28.3191 189.866 28.2272 189.866ZM27.5224 189.912L27.4918 189.958V189.974L27.5224 190.004H27.5684V189.958L27.5224 189.912ZM27.7982 190.004H27.7829V190.035C27.8544 190.26 27.9259 190.372 27.9974 190.372H28.0587L28.1353 190.295V190.28C28.0025 190.096 27.8901 190.004 27.7982 190.004ZM28.5643 190.004L28.5336 190.035V190.127L28.6256 190.219H28.6715L28.7175 190.188V190.111C28.6766 190.04 28.6256 190.004 28.5643 190.004ZM29.0546 190.372L29.0239 190.403V190.418C29.1567 190.54 29.3559 190.648 29.6215 190.74L29.6521 190.694C29.6521 190.632 29.4529 190.525 29.0546 190.372ZM29.8972 190.755C29.8972 190.796 30.2599 190.903 30.9851 191.077L31.1842 191.092H31.2302V191.077C30.9238 190.842 30.551 190.704 30.1117 190.663C29.9687 190.714 29.8972 190.745 29.8972 190.755ZM28.5796 190.816H28.5643C28.5643 190.888 28.6307 190.944 28.7635 190.985L28.7941 190.969C28.7941 190.918 28.7226 190.867 28.5796 190.816ZM30.0811 191.199V191.261L30.3416 191.352H30.5101V191.307C30.3262 191.235 30.1832 191.199 30.0811 191.199ZM31.7205 191.414H31.5826V191.46C31.6439 191.521 31.9146 191.674 32.3946 191.919C32.5989 192.103 32.7573 192.195 32.8696 192.195H32.8849L32.9156 192.149C32.6806 191.843 32.2823 191.598 31.7205 191.414ZM32.1035 192.348H32.0882V192.425C32.0882 192.527 32.175 192.65 32.3487 192.793H32.4406V192.67C32.4406 192.548 32.3283 192.44 32.1035 192.348ZM26.5878 192.563H26.5112V192.624L26.5418 192.655L26.6031 192.624L26.5878 192.563ZM25.9903 193.789L26.0056 194.172H26.0209C26.0924 194.131 26.1282 193.891 26.1282 193.452V193.329L26.0975 193.298H26.0669C26.0362 193.298 26.0107 193.462 25.9903 193.789ZM32.3793 193.543H32.3027V193.62L32.3487 193.635L32.3946 193.589L32.3793 193.543ZM33.2527 193.543L33.1301 193.666V193.743L33.1607 193.789H33.2067C33.268 193.778 33.2986 193.697 33.2986 193.543H33.2527ZM27.1853 194.064H27.1394V194.126C27.2926 194.32 27.4407 194.417 27.5837 194.417H27.6143V194.371C27.3896 194.167 27.2466 194.064 27.1853 194.064ZM31.935 194.616V194.677H31.9656C32.0576 194.616 32.1342 194.529 32.1955 194.417L32.1648 194.371C32.0831 194.422 32.0065 194.504 31.935 194.616ZM26.4805 194.585H26.4039V194.647L26.4805 194.693L26.5418 194.677V194.647L26.4805 194.585ZM32.7624 194.754L32.2414 195.183V195.213C32.2414 195.234 32.2619 195.244 32.3027 195.244C32.4253 195.244 32.5938 195.081 32.8083 194.754H32.7624ZM29.1158 195.443L28.6715 195.413V195.443C28.6715 195.484 28.8043 195.535 29.0699 195.597L29.1312 195.658H29.2078C29.1873 195.515 29.1567 195.443 29.1158 195.443ZM29.6215 195.658L29.5755 195.612V195.673H29.6215V195.658ZM29.4836 195.826H29.4529L29.5142 195.903H29.6368V195.888C29.6266 195.847 29.5755 195.826 29.4836 195.826ZM31.2609 195.826L31.2302 195.857V195.903L31.2609 195.934H31.3221C31.5162 195.923 31.6133 195.898 31.6133 195.857L31.5673 195.826H31.2609ZM29.79 195.918C29.933 196 30.1271 196.041 30.3722 196.041H30.4029L31.0617 196.01V195.98C31.031 195.898 30.6786 195.857 30.0045 195.857C29.8615 195.857 29.79 195.877 29.79 195.918ZM36.3016 185.04L36.8226 184.963C37.1801 184.963 37.461 185.147 37.6652 185.515L37.7725 186.005C37.7521 186.199 37.6397 186.455 37.4354 186.771C37.3026 186.904 37.0983 186.971 36.8226 186.971C36.1791 186.971 35.7807 186.873 35.6275 186.679C35.4743 186.475 35.4028 186.189 35.413 185.821C35.3721 185.821 35.3517 185.811 35.3517 185.791V185.76C35.6581 185.28 35.9748 185.04 36.3016 185.04ZM35.9952 185.423V185.438C36.3425 185.398 36.5161 185.352 36.5161 185.3L36.4395 185.27C36.1433 185.321 35.9952 185.372 35.9952 185.423ZM36.2557 185.867H36.271L36.3629 185.883H36.3936C36.5059 185.883 36.5774 185.842 36.6081 185.76L36.5927 185.729H36.4089C36.3272 185.729 36.2761 185.775 36.2557 185.867ZM37.3588 185.729L37.3128 185.806V185.867H37.3282L37.3741 185.806V185.729H37.3588ZM36.9911 186.235V186.281H37.0524C37.1239 186.281 37.1801 186.245 37.2209 186.174V186.128H37.1903C37.1188 186.128 37.0524 186.164 36.9911 186.235ZM36.654 186.511L36.6081 186.557V186.587H36.8838L36.9298 186.557L36.8838 186.511H36.654ZM34.7082 187.966H34.7542C34.8359 188.038 34.938 188.074 35.0606 188.074L35.2598 187.982C36.6489 187.982 37.3435 188.023 37.3435 188.104L37.3588 188.212V188.472C37.4507 188.676 37.4967 188.87 37.4967 189.054V189.299C37.3741 190.964 37.2924 192.313 37.2516 193.344C37.2311 193.406 37.2107 193.513 37.1903 193.666C37.2005 193.707 37.2465 193.727 37.3282 193.727H37.3741C37.9257 193.727 38.2015 193.794 38.2015 193.926L38.1862 193.957V194.049C38.3087 194.294 38.37 194.682 38.37 195.213L38.4313 195.826L38.3854 195.857L37.7112 195.888H36.1791C35.0351 195.888 34.463 195.796 34.463 195.612C34.463 195.499 34.4324 195.387 34.3711 195.275C34.4018 195.203 34.4528 195.147 34.5243 195.106H34.5703C34.6112 195.147 34.6571 195.168 34.7082 195.168H34.7388C35.0351 195.168 35.3874 195.142 35.796 195.091V195.06C34.9176 194.999 34.4784 194.927 34.4784 194.846L34.463 194.723V194.555L34.4324 194.156C34.4324 194.054 34.8154 194.003 35.5815 194.003C35.6837 194.003 35.7347 193.773 35.7347 193.314L35.9186 189.284H35.8879C35.6019 189.284 35.4589 189.264 35.4589 189.223C35.4589 189.213 35.4743 189.197 35.5049 189.177C34.8921 189.177 34.5856 189.105 34.5856 188.962C34.5448 188.952 34.5243 188.911 34.5243 188.84L34.6009 188.656C34.6009 188.615 34.5703 188.559 34.509 188.487C34.5907 188.406 34.6469 188.242 34.6776 187.997L34.7082 187.966ZM34.9533 188.273V188.334H35.0299C35.2955 188.334 35.4283 188.314 35.4283 188.273L35.3977 188.212H35.3517C35.0861 188.212 34.9533 188.232 34.9533 188.273ZM37.0371 188.166L36.9911 188.212L37.0524 188.258H37.083V188.212L37.0371 188.166ZM35.2904 188.487H35.0146V188.533C35.0146 188.574 35.0861 188.595 35.2291 188.595H35.3977H35.4436H35.9492C36.1024 188.595 36.1791 188.569 36.1791 188.518V188.503C36.1791 188.452 35.8828 188.446 35.2904 188.487ZM36.654 188.503L36.5161 188.487V188.518C36.5876 188.518 36.6745 188.569 36.7766 188.671H36.8072C36.8277 188.671 36.8379 188.656 36.8379 188.625H36.8685C36.9094 188.625 36.9349 188.671 36.9451 188.763H36.9758L37.1903 188.61V188.518L36.8685 188.503H36.654ZM36.5927 189.361L36.6693 189.591L36.5621 189.866C36.603 189.958 36.6387 190.004 36.6693 190.004H36.6847L36.7153 189.912V189.82C36.7153 189.453 36.7715 189.269 36.8838 189.269L36.9298 189.207V189.146L36.8838 189.1H36.7919C36.6591 189.1 36.5927 189.187 36.5927 189.361ZM36.1178 190.816L36.0718 192.793C36.082 192.864 36.0973 192.9 36.1178 192.9C36.1484 192.9 36.1688 192.854 36.1791 192.762L36.1637 192.532C36.2148 192.481 36.271 192.277 36.3323 191.919V191.827L36.3016 191.613C36.3629 191.562 36.3936 191.526 36.3936 191.506C36.3527 191.393 36.3323 191.281 36.3323 191.169V191.138C36.3731 191.138 36.4242 190.566 36.4855 189.422C36.4548 189.34 36.4242 189.299 36.3936 189.299C36.2403 189.299 36.1484 189.805 36.1178 190.816ZM36.8685 189.468L36.8072 189.483V189.575C36.8072 189.636 36.8328 189.682 36.8838 189.713H36.9298L36.9758 189.652V189.575C36.9553 189.524 36.9196 189.488 36.8685 189.468ZM36.7919 191.965H36.7153C36.6336 192.343 36.5927 192.624 36.5927 192.808H36.6081C36.6591 192.808 36.7255 192.599 36.8072 192.18V192.073L36.7919 191.965ZM36.5008 193.406V193.513H36.5315C36.5825 193.492 36.6081 193.431 36.6081 193.329V193.222H36.5621C36.5417 193.222 36.5212 193.283 36.5008 193.406ZM36.5315 193.635L36.4855 193.697V193.773H36.5315L36.5927 193.727V193.681L36.5468 193.635H36.5315ZM37.7572 194.003L37.7112 194.018C37.7725 194.069 37.8849 194.1 38.0483 194.11V194.064C38.0483 194.024 37.9819 194.003 37.8491 194.003H37.7572ZM37.8185 194.647L37.6346 194.693C37.655 194.815 37.747 194.876 37.9104 194.876H37.9564V194.83L37.9257 194.784C37.9257 194.774 37.9666 194.744 38.0483 194.693V194.616C38.0483 194.544 38.0279 194.504 37.987 194.493H37.9257C37.8951 194.504 37.8593 194.555 37.8185 194.647ZM34.8921 194.509L34.7848 194.539V194.555C34.8665 194.636 35.1832 194.682 35.7347 194.693H35.842C35.9237 194.693 35.9748 194.667 35.9952 194.616V194.585C35.5662 194.534 35.1985 194.509 34.8921 194.509ZM36.3323 194.693L36.3936 194.769C36.4855 194.769 36.5315 194.718 36.5315 194.616H36.4548C36.3936 194.616 36.3527 194.641 36.3323 194.693ZM37.7725 194.999L37.7265 195.06V195.091H37.7572L37.8031 195.03V194.999H37.7725ZM36.5927 195.091L36.3936 195.106H36.1791V195.168L36.3936 195.183L36.8379 195.152V195.106H36.7766L36.5927 195.091ZM38.1555 195.612L38.0942 195.658V195.704H38.1862L38.2015 195.658L38.1862 195.612H38.1555ZM42.0778 187.844H42.5834C42.8286 187.844 43.2269 187.951 43.7785 188.166C43.9828 188.166 44.3046 188.293 44.7438 188.549H44.8204C44.9327 188.549 45.1779 188.344 45.5558 187.936C45.6375 187.936 45.7907 188.079 46.0155 188.365C46.1176 188.406 46.2351 188.503 46.3679 188.656V188.702C45.7958 189.335 45.5098 189.688 45.5098 189.759C45.2341 190.689 45.0502 191.204 44.9583 191.307C44.7642 191.511 44.4884 191.69 44.1309 191.843C43.6815 192.292 43.278 192.517 42.9205 192.517L42.4609 192.532L41.465 192.44H41.2658C41.1841 192.44 41.0768 192.777 40.944 193.452L41.0666 193.482H41.1126C41.276 193.482 41.4548 193.421 41.6488 193.298L42.0012 193.268H42.6141C43.5947 193.268 44.4016 193.36 45.0349 193.543C45.1268 193.605 45.3515 193.717 45.709 193.881L46.23 194.264C46.6385 194.611 46.8939 194.922 46.996 195.198C47.3637 195.913 47.5476 196.521 47.5476 197.021C47.5476 197.399 47.2514 197.869 46.659 198.431L45.7243 199.105C45.2341 199.412 44.6518 199.565 43.9777 199.565L43.5487 199.626C41.7305 199.626 40.4997 199.258 39.8562 198.523C39.3864 198.237 39.1514 197.864 39.1514 197.404C38.9778 197.078 38.891 196.649 38.891 196.117L38.8297 195.78L38.891 195.581H38.9369C38.988 195.816 39.0289 195.934 39.0595 195.934H39.1055C39.2485 195.29 39.3608 194.861 39.4425 194.647V194.616H39.4272C39.131 195.096 38.9829 195.372 38.9829 195.443H38.9522C38.9114 195.443 38.891 195.387 38.891 195.275C38.9012 195.07 39.085 194.718 39.4425 194.218C39.8409 193.84 40.0401 193.625 40.0401 193.574C40.1422 192.726 40.2188 192.2 40.2699 191.996C40.0043 191.485 39.8715 191.066 39.8715 190.74L39.8562 190.479C39.8562 190.306 39.9226 189.989 40.0554 189.529C40.1678 189.417 40.3823 189.141 40.6989 188.702C41.2403 188.13 41.6999 187.844 42.0778 187.844ZM41.5109 188.227V188.242C41.8684 188.15 42.0472 188.074 42.0472 188.012V187.997H42.0012C41.8582 187.997 41.6948 188.074 41.5109 188.227ZM45.6018 188.288L45.5558 188.334V188.349C45.5762 188.38 45.612 188.395 45.6631 188.395H45.755V188.365L45.6477 188.288H45.6018ZM41.894 188.549V188.61H41.9246L42.3843 188.441V188.365H42.2464C42.0114 188.416 41.894 188.477 41.894 188.549ZM40.9747 190.127V190.203C41.1381 190.98 41.2556 191.368 41.3271 191.368C41.562 191.593 41.7663 191.705 41.9399 191.705C42.7162 191.705 43.2729 191.531 43.61 191.184C43.8653 190.949 44.0492 190.704 44.1616 190.449C44.2433 190.306 44.2841 190.198 44.2841 190.127V189.882C44.2841 189.718 44.1616 189.473 43.9164 189.146C43.3648 188.901 42.9818 188.778 42.7673 188.778C42.2872 188.778 41.8225 188.988 41.373 189.407C41.1075 189.734 40.9747 189.974 40.9747 190.127ZM45.4792 189.207V189.299H45.5098C45.7243 189.116 45.8725 188.957 45.9542 188.824V188.778H45.9389C45.8265 188.778 45.6733 188.921 45.4792 189.207ZM41.1432 189.177L41.2045 189.192C41.2658 189.192 41.3475 189.126 41.4497 188.993V188.932H41.3577C41.2147 189.013 41.1432 189.095 41.1432 189.177ZM44.514 189.039H44.4373V189.054C44.5088 189.248 44.5957 189.345 44.6978 189.345C44.7285 189.345 44.7438 189.33 44.7438 189.299C44.7438 189.228 44.6672 189.141 44.514 189.039ZM40.2086 189.866H40.2546C40.2852 189.846 40.3669 189.744 40.4997 189.56L40.4538 189.529C40.3925 189.529 40.3108 189.642 40.2086 189.866ZM40.0094 190.326C40.0094 190.551 40.0605 190.719 40.1626 190.832H40.2239C40.2546 190.832 40.2699 190.816 40.2699 190.786C40.229 190.357 40.178 190.142 40.1167 190.142C40.0656 190.142 40.0299 190.203 40.0094 190.326ZM44.0237 191.169V191.184H44.1156C44.2994 191.184 44.4169 190.975 44.468 190.556V190.479L44.4527 190.449H44.4067C44.1513 190.857 44.0237 191.097 44.0237 191.169ZM40.7908 190.51L40.7602 190.556C40.7602 190.729 40.8164 190.888 40.9287 191.031H40.944V190.969C40.9236 190.704 40.8725 190.551 40.7908 190.51ZM44.8204 191.107H44.7744L44.7285 191.184V191.199H44.7744C44.7846 191.199 44.8 191.169 44.8204 191.107ZM43.7172 191.521H43.7632C43.8858 191.47 43.9828 191.398 44.0543 191.307L44.0083 191.245C43.8347 191.368 43.7377 191.46 43.7172 191.521ZM43.0737 191.705V191.751L43.1657 191.812H43.2269C43.278 191.812 43.3802 191.736 43.5334 191.582V191.552H43.3955C43.2729 191.552 43.1657 191.603 43.0737 191.705ZM40.2852 191.644H40.2239V191.69C40.3261 191.853 40.4793 191.965 40.6836 192.027V191.996C40.5916 191.761 40.4589 191.644 40.2852 191.644ZM43.6713 191.644L43.61 191.705V191.766H43.6406L43.7632 191.659V191.644H43.6713ZM40.9134 191.751L40.8674 191.797C40.9083 191.899 40.9747 191.95 41.0666 191.95L41.1432 191.858C41.1432 191.817 41.0666 191.781 40.9134 191.751ZM42.752 191.812L42.6907 191.873C42.6907 191.894 42.7775 191.914 42.9512 191.935L43.0737 191.919C43.0737 191.879 43.0073 191.843 42.8746 191.812H42.752ZM41.2505 191.935L41.2352 191.95V192.073L41.2964 192.134H41.5569V192.073C41.3833 191.981 41.2811 191.935 41.2505 191.935ZM41.7714 192.103L41.7101 192.149C41.7101 192.241 41.8787 192.287 42.2157 192.287H42.66C42.7213 192.287 42.7571 192.267 42.7673 192.226C42.5528 192.144 42.2719 192.103 41.9246 192.103H41.7714ZM40.6529 192.287L40.5763 192.348V192.471C40.5763 192.553 40.6172 192.604 40.6989 192.624L40.7602 192.578V192.333L40.6989 192.287H40.6529ZM43.0278 193.513L42.6907 193.574V193.589C42.6907 193.681 43.2167 193.743 44.2688 193.773L44.5906 193.881H44.6212C44.6518 193.881 44.6927 193.865 44.7438 193.835L45.1881 193.85V193.804C45.137 193.722 45.0196 193.681 44.8357 193.681H44.6825C44.6314 193.681 44.5855 193.697 44.5446 193.727L44.1769 193.574C43.9624 193.533 43.6304 193.513 43.181 193.513H43.0278ZM41.8633 193.574H41.802H41.8633ZM41.0206 194.003C41.0206 194.024 41.1841 194.044 41.5109 194.064C41.6437 194.054 41.7101 194.034 41.7101 194.003C41.659 193.921 41.5978 193.865 41.5263 193.835H41.3577C41.133 193.865 41.0206 193.921 41.0206 194.003ZM43.6406 194.064H43.6253V194.08C43.6253 194.121 43.7479 194.146 43.993 194.156L44.0083 194.141V194.11L43.6406 194.064ZM45.1115 194.064L45.0655 194.126L45.1115 194.156L45.1728 194.141V194.064H45.1115ZM40.3465 194.264L40.4231 194.31H40.5304L40.5916 194.233V194.141L40.5457 194.08C40.4435 194.08 40.3771 194.141 40.3465 194.264ZM39.7183 194.555V194.57L39.7643 194.616C40.0094 194.555 40.132 194.473 40.132 194.371V194.264L40.1014 194.218C39.9686 194.269 39.8409 194.381 39.7183 194.555ZM45.326 194.279H45.3107C45.3107 194.35 45.4281 194.412 45.6631 194.463L45.7243 194.447V194.417C45.6528 194.325 45.5405 194.279 45.3873 194.279H45.3413H45.326ZM41.4497 194.31L41.373 194.371L41.419 194.417H41.5263V194.34L41.4803 194.31H41.4497ZM43.61 194.34L43.5334 194.417C43.5334 194.458 43.7887 194.493 44.2994 194.524C44.7182 194.647 45.0808 194.815 45.3873 195.03L45.6018 195.045L45.6631 194.984V194.968C45.5916 194.825 45.2647 194.667 44.6825 194.493C44.1411 194.391 43.7836 194.34 43.61 194.34ZM42.6141 194.555V194.601L42.3689 194.647L42.0472 194.601L40.9134 194.616C40.4435 195.045 40.2086 195.346 40.2086 195.52L40.1167 195.627V195.658C40.1882 196.679 40.2903 197.313 40.4231 197.558C40.4333 197.609 40.6172 197.762 40.9747 198.017C40.9747 198.089 41.2811 198.211 41.894 198.385C42.7928 198.518 43.5385 198.584 44.1309 198.584C44.897 198.441 45.4179 198.227 45.6937 197.941C46.1942 197.43 46.4445 197.011 46.4445 196.684V196.608C46.4445 196.434 46.2453 196.092 45.8469 195.581C45.7958 195.438 45.6426 195.3 45.3873 195.168C44.9378 194.871 44.4833 194.687 44.0237 194.616L43.0737 194.601V194.509V194.493H42.8899C42.7469 194.493 42.6549 194.514 42.6141 194.555ZM45.9082 194.57H45.801V194.601L46.3985 195.137H46.4291V195.106C46.2861 194.82 46.1125 194.641 45.9082 194.57ZM40.2086 194.892V194.938H40.2546L40.4384 194.876V194.815H40.4078C40.275 194.825 40.2086 194.851 40.2086 194.892ZM39.9941 195.045V195.106H40.0401L40.132 194.999V194.953C40.0707 194.953 40.0248 194.984 39.9941 195.045ZM39.5804 195.428L39.5958 195.505H39.6264C39.6775 195.505 39.7388 195.351 39.8103 195.045H39.7796C39.6468 195.147 39.5804 195.275 39.5804 195.428ZM45.7856 195.106H45.7243C45.7243 195.157 45.8725 195.362 46.1687 195.719V195.734H46.1993V195.673C46.0665 195.295 45.9286 195.106 45.7856 195.106ZM47.1646 196.24H47.1033V196.271L47.1492 196.332L47.1646 196.301V196.24ZM46.8122 196.347H46.7356V196.378L46.7815 196.439H46.8122L46.8735 196.378L46.8122 196.347ZM39.0595 196.485L39.0289 196.5V196.608L39.0901 196.654H39.1055V196.485H39.0595ZM47.0573 196.776V196.807C47.0573 196.899 47.0777 196.95 47.1186 196.96H47.1492C47.231 196.817 47.2718 196.664 47.2718 196.5L47.2565 196.485H47.2105C47.1084 196.557 47.0573 196.654 47.0573 196.776ZM39.9328 196.531L39.9022 196.577L39.8715 196.884C39.8818 197.098 39.9124 197.205 39.9635 197.205H39.9941C40.0248 197.185 40.0401 197.149 40.0401 197.098V196.899C40.0401 196.654 40.0145 196.531 39.9635 196.531H39.9328ZM39.1361 196.761H39.1055V196.807C39.1157 196.878 39.1361 196.914 39.1667 196.914L39.2127 196.884V196.838L39.1361 196.761ZM46.0921 197.818V197.849L46.138 197.879C46.3934 197.808 46.5211 197.675 46.5211 197.481V197.374H46.4751C46.2197 197.568 46.0921 197.716 46.0921 197.818ZM39.7796 197.742L39.7183 197.818C39.749 197.89 39.7796 197.925 39.8103 197.925L39.8715 197.849C39.8715 197.808 39.8409 197.772 39.7796 197.742ZM40.4078 198.033H40.3771V198.079L40.4384 198.14H40.5304V198.094C40.5201 198.053 40.4793 198.033 40.4078 198.033ZM40.1933 198.14L40.1473 198.201V198.232H40.2852V198.14H40.1933ZM44.0696 198.86C42.8133 198.778 42.1034 198.707 41.9399 198.646L41.5263 198.615V198.646C41.659 198.748 41.8327 198.814 42.0472 198.845L42.5068 198.829L42.6141 198.906L42.6294 198.891H42.66C42.9358 198.942 43.2269 198.967 43.5334 198.967H43.8704C44.3199 198.967 44.6314 198.911 44.8051 198.799C45.2341 198.646 45.4486 198.559 45.4486 198.538V198.523C44.8153 198.656 44.3556 198.768 44.0696 198.86ZM44.7744 199.366H44.8204C44.9021 199.366 45.1523 199.243 45.5711 198.998V198.967H45.5098C45.0196 199.08 44.7744 199.212 44.7744 199.366ZM44.3454 199.304V199.335H44.4067C44.5906 199.304 44.6825 199.243 44.6825 199.151H44.6212C44.4782 199.202 44.3863 199.253 44.3454 199.304ZM42.0778 199.243L42.0012 199.182L41.9859 199.197V199.212L42.0472 199.243H42.0778ZM42.3077 199.289H42.2464V199.304C42.2566 199.345 42.3128 199.366 42.4149 199.366H42.5834C42.5834 199.315 42.4915 199.289 42.3077 199.289ZM43.5487 199.289L43.5181 199.335V199.366C43.5283 199.406 43.564 199.427 43.6253 199.427H43.7172L43.9164 199.381V199.335L43.6406 199.289H43.5487ZM47.7774 188.135L47.8081 188.104C48.043 188.145 48.2881 188.166 48.5435 188.166H49.7999L49.8458 188.212C49.7845 188.395 49.7539 188.538 49.7539 188.641V188.901C49.7948 189.187 49.8765 189.33 49.999 189.33C50.0603 189.218 50.2646 189.11 50.6119 189.008C51.4393 188.651 52.1134 188.472 52.6343 188.472C52.9816 188.472 53.3545 188.625 53.7528 188.932C54.049 189.044 54.335 189.284 54.6108 189.652C55.0296 190.316 55.239 191.097 55.239 191.996V192.119L55.1317 193.222L55.239 194.018L55.0858 194.739V194.769V194.892L55.668 194.922H55.9285C56.1021 194.922 56.2043 194.938 56.2349 194.968C56.194 195.714 56.1174 196.087 56.0051 196.087C55.8008 196.209 55.5812 196.271 55.3463 196.271H55.0245C54.5342 196.271 54.0184 196.337 53.477 196.47C53.1195 196.419 52.9408 196.24 52.9408 195.934L52.9255 195.382C52.9255 195.045 53.0123 194.8 53.1859 194.647C53.2778 194.146 53.3851 193.692 53.5077 193.283L53.5996 191.919C53.6302 191.919 53.6456 191.807 53.6456 191.582C53.6456 191.307 53.426 190.913 52.9867 190.403C52.6497 190.26 52.4556 190.188 52.4045 190.188C51.8121 190.188 51.2809 190.438 50.8111 190.939C50.7702 190.939 50.52 191.189 50.0603 191.69C49.9173 191.802 49.8458 192.144 49.8458 192.716C49.8663 193.748 49.902 194.264 49.9531 194.264C50.3617 194.335 50.5659 194.412 50.5659 194.493V194.555L50.2289 194.539L49.9837 194.555V194.616C49.9837 194.657 50.1778 194.708 50.5659 194.769C50.6374 194.841 50.6732 194.958 50.6732 195.122V195.152C50.6732 195.397 50.6221 195.658 50.52 195.934L48.7427 195.949C48.569 195.949 48.4414 195.862 48.3596 195.688C48.3188 195.494 48.2728 195.116 48.2218 194.555C48.2218 194.504 48.375 194.447 48.6814 194.386L48.758 194.279V194.264C48.758 194.202 48.7171 194.115 48.6354 194.003V193.528V192.655L48.6967 191.245C48.6967 190.285 48.6559 189.805 48.5741 189.805H48.4975L47.7774 189.897C47.7059 189.897 47.6089 189.836 47.4863 189.713V189.652C47.5374 189.57 47.5629 189.483 47.5629 189.391L47.5323 188.824L47.7774 188.135ZM49.1104 188.411L47.854 188.61V188.641C47.854 188.671 47.9306 188.692 48.0839 188.702C48.7478 188.702 49.0798 188.656 49.0798 188.564L49.141 188.472V188.441H49.1104V188.411ZM52.1594 188.702V188.717C52.2309 188.717 52.3535 188.778 52.5271 188.901L52.6956 188.947L53.1859 188.932L53.2012 188.901V188.886C53.191 188.824 53.1348 188.794 53.0327 188.794H52.9714L52.8182 188.824C52.5935 188.692 52.4301 188.625 52.3279 188.625C52.236 188.625 52.1798 188.651 52.1594 188.702ZM51.1175 188.978V188.993L51.1482 189.039C51.6282 188.916 51.8683 188.824 51.8683 188.763H51.8376C51.6129 188.763 51.3729 188.835 51.1175 188.978ZM48.1605 188.993L48.2064 189.039H48.2371C48.3699 189.029 48.4363 188.998 48.4363 188.947L48.3596 188.932C48.2269 188.932 48.1605 188.952 48.1605 188.993ZM48.2984 189.299V189.33L48.5895 189.315H48.6354C48.7376 189.315 48.7989 189.34 48.8193 189.391V189.437C48.7682 189.488 48.7427 189.539 48.7427 189.591C48.7938 189.631 48.855 189.652 48.9265 189.652C48.9572 189.652 48.9725 189.631 48.9725 189.591L48.9878 189.085L48.9725 189.039H48.9265C48.8653 189.08 48.661 189.162 48.3137 189.284L48.2984 189.299ZM50.8417 189.131L50.8571 189.146V189.162C50.949 189.131 50.9949 189.105 50.9949 189.085V189.054H50.9643C50.8826 189.075 50.8417 189.1 50.8417 189.131ZM47.7468 189.146V189.162C47.7468 189.192 47.7723 189.218 47.8234 189.238C47.9051 189.238 47.997 189.192 48.0992 189.1V189.085H47.854C47.7825 189.095 47.7468 189.116 47.7468 189.146ZM53.0327 189.391C53.0327 189.432 53.1246 189.463 53.3085 189.483C53.3493 189.453 53.3698 189.412 53.3698 189.361C53.3698 189.31 53.2881 189.269 53.1246 189.238C53.0633 189.279 53.0327 189.33 53.0327 189.391ZM49.9378 189.514V189.575C50.0808 189.575 50.234 189.483 50.3974 189.299V189.284L50.3821 189.269H50.3668C50.2442 189.269 50.1012 189.35 49.9378 189.514ZM53.6149 189.299L53.569 189.361C53.5894 189.412 53.6302 189.437 53.6915 189.437H53.7681L53.8447 189.376V189.361C53.8345 189.32 53.7835 189.299 53.6915 189.299H53.6149ZM51.9142 189.453V189.483H51.9908C52.1441 189.463 52.2207 189.432 52.2207 189.391V189.361H52.1134C51.9806 189.371 51.9142 189.402 51.9142 189.453ZM49.4015 189.376H49.3249L49.2943 189.468V189.744C49.2943 189.866 49.2738 189.948 49.233 189.989V190.065L49.2943 190.28V190.403C49.2943 190.484 49.3198 190.54 49.3709 190.571C49.3811 190.571 49.4117 190.454 49.4628 190.219C49.6058 190.106 49.6773 190.02 49.6773 189.958C49.6773 189.907 49.6211 189.795 49.5088 189.621C49.4781 189.458 49.4424 189.376 49.4015 189.376ZM47.8694 189.621V189.652H48.0226L48.0839 189.591V189.575L48.0073 189.545C47.9153 189.575 47.8694 189.601 47.8694 189.621ZM53.3545 189.667L53.2625 189.621L53.2319 189.652V189.667L53.3085 189.713H53.3238L53.3545 189.667ZM52.1747 189.774L52.2053 189.805H52.2207C52.4454 189.805 52.5577 189.785 52.5577 189.744L52.4352 189.713C52.2615 189.734 52.1747 189.754 52.1747 189.774ZM49.9531 190.372V190.418C50.2187 190.387 50.5864 190.168 51.0562 189.759V189.744H50.9643C50.9234 189.744 50.8009 189.815 50.5966 189.958C50.1676 190.091 49.9531 190.229 49.9531 190.372ZM53.6149 189.774H53.5996V189.82C53.5996 189.851 53.666 189.994 53.7988 190.249C53.7988 190.331 53.8192 190.372 53.8601 190.372L53.9214 190.311V190.249C53.9214 190.086 53.8192 189.928 53.6149 189.774ZM48.8499 189.958L48.8806 190.004H48.9112L48.9572 189.805H48.9112C48.8806 189.805 48.8601 189.856 48.8499 189.958ZM52.711 190.065V190.111H53.094L53.1553 190.065V190.004L53.0787 189.958H53.0021C52.808 189.989 52.711 190.025 52.711 190.065ZM51.1941 190.311C51.4188 190.27 51.5312 190.214 51.5312 190.142L51.4852 190.111H51.4393C51.2861 190.111 51.2043 190.178 51.1941 190.311ZM50.7038 190.494V190.525H50.7498C50.9132 190.392 50.9949 190.28 50.9949 190.188H50.9643V190.157C50.8826 190.157 50.7958 190.27 50.7038 190.494ZM49.5241 190.341L49.5547 190.433C49.5547 190.515 49.5088 190.597 49.4168 190.678C49.4679 190.729 49.4934 190.78 49.4934 190.832C49.4934 191.342 49.5292 191.598 49.6007 191.598H49.616C49.6977 191.414 49.7386 191.174 49.7386 190.878C49.7284 190.5 49.6824 190.3 49.6007 190.28H49.57C49.5394 190.28 49.5241 190.3 49.5241 190.341ZM53.8447 190.54V190.586C53.9673 191.046 54.0439 191.286 54.0746 191.307L54.1052 191.199V191.061C54.0337 190.714 53.9469 190.54 53.8447 190.54ZM54.5342 190.571H54.5189C54.5393 191.112 54.5904 191.383 54.6721 191.383H54.7027C54.6517 190.842 54.5955 190.571 54.5342 190.571ZM50.52 190.602L50.428 190.724V190.755L50.4434 190.786H50.52L50.5659 190.602H50.52ZM50.091 190.755L50.0603 190.786L50.091 190.832H50.1523V190.786L50.1216 190.755H50.091ZM54.427 192.563V192.578L54.4729 192.762H54.5495C54.5393 192.629 54.4985 192.563 54.427 192.563ZM53.8447 193.666L53.8601 193.681H53.8754C53.906 193.681 53.9214 193.63 53.9214 193.528V193.344C53.8805 193.344 53.855 193.452 53.8447 193.666ZM53.7528 193.911C53.8141 193.983 53.8447 194.08 53.8447 194.202H53.8754L53.9214 194.018V193.758C53.809 193.758 53.7528 193.809 53.7528 193.911ZM54.427 193.773H54.3963V193.85H54.427V193.773ZM54.7794 193.85L54.7487 194.156V194.539H54.764C54.8968 194.376 54.9632 194.223 54.9632 194.08V194.064C54.9632 193.921 54.9019 193.85 54.7794 193.85ZM54.381 194.555V194.585H54.3963L54.4576 194.417V194.386H54.427C54.3963 194.386 54.381 194.442 54.381 194.555ZM48.4669 194.616L48.4363 194.677V194.693C48.4567 194.876 48.5231 194.968 48.6354 194.968H48.7274L48.7733 194.922V194.892C48.6814 194.779 48.6354 194.687 48.6354 194.616H48.4669ZM54.427 194.83H54.3657V194.892L54.427 194.953L54.4729 194.922V194.892L54.427 194.83ZM55.2543 195.183V195.229C55.714 195.229 55.9438 195.193 55.9438 195.122V195.091H55.7293C55.4126 195.101 55.2543 195.132 55.2543 195.183ZM49.1104 195.336C49.1104 195.387 49.2432 195.413 49.5088 195.413C50.0195 195.413 50.2748 195.387 50.2748 195.336C50.2748 195.275 50.1012 195.244 49.7539 195.244C49.3658 195.244 49.1513 195.275 49.1104 195.336ZM53.2625 195.382H53.2166V195.474L53.2625 195.52H53.3085L53.3238 195.474V195.459L53.2625 195.382ZM55.3922 195.505V195.551C55.4126 195.602 55.4586 195.627 55.5301 195.627C55.6935 195.627 55.7906 195.591 55.8212 195.52V195.474C55.8008 195.413 55.7446 195.382 55.6527 195.382H55.5761C55.4739 195.382 55.4126 195.423 55.3922 195.505ZM53.5996 195.78C53.6302 195.862 53.6813 195.903 53.7528 195.903C54.3044 195.893 54.5802 195.857 54.5802 195.796C54.5087 195.704 54.381 195.658 54.1971 195.658C53.7988 195.668 53.5996 195.709 53.5996 195.78ZM53.2166 196.071L53.1553 196.133V196.163C53.1553 196.235 53.2932 196.271 53.569 196.271H53.6456L53.7681 196.24V196.225C53.666 196.123 53.5026 196.071 53.2778 196.071H53.2166ZM58.1194 193.727C58.4361 193.768 58.6557 193.845 58.7783 193.957C58.8191 194.039 58.8395 194.131 58.8395 194.233V194.447C58.8395 194.866 58.5995 195.27 58.1194 195.658L57.9203 195.719C57.7262 195.719 57.527 195.428 57.3227 194.846V194.784C57.3227 194.335 57.3891 194.059 57.5219 193.957C57.8181 193.804 58.0173 193.727 58.1194 193.727ZM57.6292 194.401C57.6496 194.667 57.6853 194.8 57.7364 194.8C57.7568 194.779 57.8028 194.601 57.8743 194.264L57.9203 194.156V194.11H57.9049C57.7211 194.172 57.6292 194.269 57.6292 194.401ZM58.0428 194.493V194.524C58.0428 194.626 58.0633 194.682 58.1041 194.693H58.1194C58.1603 194.693 58.2216 194.585 58.3033 194.371V194.279L58.2573 194.264H58.2114C58.099 194.264 58.0428 194.34 58.0428 194.493ZM58.4872 194.693L58.5025 194.723H58.5791L58.5944 194.616V194.57H58.5791C58.5484 194.57 58.5178 194.611 58.4872 194.693ZM58.2727 194.999L57.7058 195.06C57.7058 195.142 57.7364 195.188 57.7977 195.198H57.9662C58.0888 195.198 58.1909 195.142 58.2727 195.03V194.999Z" fill="#FF00AA"/>
<path d="M64.6372 186.836H69.6578V188.609H66.614V194.021H69.6578V195.857H64.6372V186.836ZM75.4471 187.918L73.6742 186.836H70.4265V188.609H73.4702V194.021H70.4265V195.857H73.6742L75.4471 194.79V187.918ZM86.4706 191.825V190.036L84.6193 188.938H82.109V190.413H84.4781V191.699H82.109V192.907H84.6193L86.4706 191.825ZM86.4706 193.676H84.4153V194.194H82.109V195.857H84.6193L86.4706 194.774V193.676ZM76.9943 194.774V190.036L78.8456 188.938H81.3402V190.413H78.9711V191.699H81.3402V192.907H78.9711V194.194H81.3402V195.857H78.8456L76.9943 194.774ZM89.8543 189.001L92.443 192.939V195.857H91.8311L87.8775 189.566L89.8543 189.001ZM95.7064 189.001L93.2275 192.939V195.857H93.7923L97.6048 189.566L95.7064 189.001ZM108.488 191.825V190.036L106.636 188.938H104.126V190.413H106.495V191.699H104.126V192.907H106.636L108.488 191.825ZM108.488 193.676H106.432V194.194H104.126V195.857H106.636L108.488 194.774V193.676ZM99.0113 194.774V190.036L100.863 188.938H103.357V190.413H100.988V191.699H103.357V192.907H100.988V194.194H103.357V195.857H100.863L99.0113 194.774ZM111.306 186.836H113.315V195.873H111.306V186.836ZM114.884 190.036V194.759L116.72 195.841H119.199V194.163H116.846V190.429H119.199V188.954H116.72L114.884 190.036ZM124.094 190.036V194.759L122.258 195.841H119.764V194.163H122.133V190.429H119.764V188.954H122.258L124.094 190.036ZM136.286 193.849L134.528 194.916H132.049V193.661H134.324V190.429H131.955V188.954H134.528L136.286 190.036V193.849ZM126.919 188.954H131.265V190.429H128.912V193.661H131.187V194.916H128.912V198.885H126.919V188.954ZM137.836 193.692H140.001V195.857H137.836V193.692Z" fill="#AB00DA"/>
<path d="M150.891 185.752C152.55 185.752 153.882 186.094 154.886 186.78C155.889 187.456 156.391 188.718 156.391 190.566C156.391 192.036 156.068 193.164 155.422 193.949C154.776 194.724 154.041 195.236 153.216 195.484C152.401 195.733 151.611 195.857 150.846 195.857C149.406 195.857 147.985 195.872 146.584 195.902C146.584 195.504 146.613 195.196 146.673 194.978C146.951 194.958 147.16 194.908 147.299 194.829C147.448 194.739 147.547 194.59 147.597 194.381C147.657 194.163 147.687 193.835 147.687 193.398V188.151C147.687 187.744 147.657 187.446 147.597 187.257C147.547 187.058 147.453 186.919 147.314 186.84C147.175 186.75 146.961 186.691 146.673 186.661C146.613 186.422 146.584 186.114 146.584 185.737C147.18 185.766 148.064 185.781 149.237 185.781C149.555 185.781 149.798 185.776 149.967 185.766L150.891 185.752ZM151.204 194.933C152.019 194.933 152.695 194.645 153.231 194.068C153.768 193.482 154.036 192.399 154.036 190.819C154.036 189.339 153.728 188.27 153.112 187.615C152.506 186.959 151.731 186.631 150.787 186.631C150.449 186.631 150.176 186.676 149.967 186.765V193.353C149.967 193.78 150.002 194.108 150.071 194.337C150.141 194.555 150.26 194.709 150.429 194.799C150.608 194.888 150.866 194.933 151.204 194.933ZM164.221 193.472C164.46 193.492 164.678 193.542 164.877 193.621C165.076 193.691 165.23 193.775 165.339 193.875C165.14 194.391 165.006 195.057 164.937 195.872L161.687 195.857L157.842 195.887C157.842 195.489 157.872 195.181 157.931 194.963C158.18 194.943 158.364 194.903 158.483 194.843C158.602 194.774 158.687 194.655 158.736 194.486C158.786 194.317 158.811 194.054 158.811 193.696V190.551C158.811 190.203 158.786 189.95 158.736 189.791C158.687 189.622 158.602 189.508 158.483 189.448C158.364 189.378 158.175 189.329 157.916 189.299C157.867 189.1 157.842 188.792 157.842 188.375C158.796 188.395 159.854 188.405 161.017 188.405C162.954 188.405 164.137 188.395 164.564 188.375C164.614 189.249 164.708 189.905 164.847 190.342C164.539 190.481 164.181 190.551 163.774 190.551C163.704 190.124 163.531 189.811 163.252 189.612C162.984 189.403 162.522 189.299 161.866 189.299H161.017V191.788H161.434C161.821 191.788 162.085 191.733 162.224 191.624C162.363 191.515 162.438 191.326 162.447 191.058C162.686 190.958 163.004 190.909 163.401 190.909C163.372 191.246 163.357 191.674 163.357 192.19C163.357 192.757 163.372 193.189 163.401 193.487C162.994 193.487 162.686 193.447 162.477 193.368C162.447 193.1 162.358 192.921 162.209 192.831C162.07 192.732 161.812 192.682 161.434 192.682H161.017V193.621C161.017 194.148 161.086 194.506 161.225 194.694C161.374 194.883 161.658 194.978 162.075 194.978H162.269C162.845 194.978 163.267 194.868 163.536 194.65C163.814 194.421 164.042 194.029 164.221 193.472ZM171.38 194.978C171.897 194.978 172.29 194.863 172.558 194.635C172.836 194.396 173.07 194.004 173.258 193.457C173.487 193.467 173.7 193.512 173.899 193.591C174.098 193.661 174.252 193.745 174.361 193.845C174.182 194.312 174.048 194.988 173.959 195.872L170.799 195.857L166.954 195.887C166.954 195.489 166.983 195.181 167.043 194.963C167.291 194.943 167.475 194.903 167.595 194.843C167.714 194.774 167.798 194.655 167.848 194.486C167.898 194.317 167.922 194.054 167.922 193.696V190.551C167.922 190.203 167.898 189.95 167.848 189.791C167.798 189.622 167.714 189.508 167.595 189.448C167.475 189.378 167.286 189.329 167.028 189.299C166.978 189.031 166.954 188.723 166.954 188.375H167.311C168.066 188.395 168.638 188.405 169.025 188.405C169.711 188.405 170.402 188.395 171.097 188.375C171.097 188.822 171.062 189.13 170.993 189.299C170.734 189.329 170.546 189.378 170.426 189.448C170.317 189.508 170.238 189.622 170.188 189.791C170.148 189.95 170.128 190.203 170.128 190.551V193.621C170.128 194.148 170.198 194.506 170.337 194.694C170.486 194.883 170.769 194.978 171.187 194.978H171.38ZM175.803 195.887C175.803 195.479 175.838 195.171 175.908 194.963C176.156 194.943 176.34 194.903 176.459 194.843C176.578 194.774 176.658 194.655 176.698 194.486C176.747 194.307 176.772 194.039 176.772 193.681V190.551C176.772 190.203 176.747 189.95 176.698 189.791C176.658 189.622 176.578 189.508 176.459 189.448C176.35 189.378 176.166 189.329 175.908 189.299C175.838 189.08 175.803 188.772 175.803 188.375C176.38 188.395 177.085 188.405 177.92 188.405C178.556 188.405 179.231 188.395 179.947 188.375C179.947 188.782 179.912 189.09 179.842 189.299C179.584 189.329 179.395 189.378 179.276 189.448C179.167 189.508 179.087 189.622 179.038 189.791C178.998 189.95 178.978 190.203 178.978 190.551V193.681C178.978 194.039 178.998 194.307 179.038 194.486C179.087 194.655 179.172 194.774 179.291 194.843C179.41 194.903 179.594 194.943 179.842 194.963C179.912 195.161 179.947 195.469 179.947 195.887C179.371 195.867 178.725 195.857 178.009 195.857C177.274 195.857 176.539 195.867 175.803 195.887ZM188.91 188.405C189.377 188.405 189.809 188.395 190.207 188.375C190.207 188.713 190.172 189.021 190.102 189.299C189.705 189.359 189.347 189.736 189.029 190.432C188.393 191.813 187.499 193.621 186.346 195.857C186.237 195.907 186.088 195.936 185.899 195.946C185.711 195.956 185.527 195.961 185.348 195.961C184.573 194.342 183.669 192.568 182.635 190.64C182.417 190.243 182.253 189.96 182.143 189.791C182.044 189.622 181.95 189.508 181.86 189.448C181.771 189.378 181.651 189.329 181.502 189.299C181.443 189.12 181.413 188.812 181.413 188.375C181.969 188.395 182.625 188.405 183.38 188.405C184.245 188.405 184.921 188.395 185.407 188.375C185.407 188.812 185.378 189.12 185.318 189.299C185.099 189.329 184.94 189.378 184.841 189.448C184.752 189.508 184.707 189.597 184.707 189.716C184.707 189.875 184.786 190.099 184.945 190.387C185.492 191.371 185.994 192.404 186.451 193.487L186.764 192.876C187.31 191.813 187.718 190.978 187.986 190.372C188.085 190.144 188.135 189.95 188.135 189.791C188.135 189.503 187.961 189.339 187.613 189.299C187.554 189.1 187.524 188.792 187.524 188.375C187.961 188.395 188.423 188.405 188.91 188.405ZM198.062 193.472C198.301 193.492 198.52 193.542 198.718 193.621C198.917 193.691 199.071 193.775 199.18 193.875C198.982 194.391 198.847 195.057 198.778 195.872L195.529 195.857L191.683 195.887C191.683 195.489 191.713 195.181 191.773 194.963C192.021 194.943 192.205 194.903 192.324 194.843C192.443 194.774 192.528 194.655 192.578 194.486C192.627 194.317 192.652 194.054 192.652 193.696V190.551C192.652 190.203 192.627 189.95 192.578 189.791C192.528 189.622 192.443 189.508 192.324 189.448C192.205 189.378 192.016 189.329 191.758 189.299C191.708 189.1 191.683 188.792 191.683 188.375C192.637 188.395 193.695 188.405 194.858 188.405C196.796 188.405 197.978 188.395 198.405 188.375C198.455 189.249 198.549 189.905 198.688 190.342C198.38 190.481 198.023 190.551 197.615 190.551C197.546 190.124 197.372 189.811 197.094 189.612C196.825 189.403 196.363 189.299 195.708 189.299H194.858V191.788H195.275C195.663 191.788 195.926 191.733 196.065 191.624C196.204 191.515 196.279 191.326 196.289 191.058C196.527 190.958 196.845 190.909 197.243 190.909C197.213 191.246 197.198 191.674 197.198 192.19C197.198 192.757 197.213 193.189 197.243 193.487C196.835 193.487 196.527 193.447 196.319 193.368C196.289 193.1 196.199 192.921 196.05 192.831C195.911 192.732 195.653 192.682 195.275 192.682H194.858V193.621C194.858 194.148 194.928 194.506 195.067 194.694C195.216 194.883 195.499 194.978 195.916 194.978H196.11C196.686 194.978 197.109 194.868 197.377 194.65C197.655 194.421 197.884 194.029 198.062 193.472ZM208.068 194.277C208.237 194.506 208.411 194.67 208.59 194.769C208.779 194.868 209.042 194.928 209.38 194.948C209.38 195.256 209.34 195.559 209.261 195.857C208.059 195.857 207.169 195.892 206.593 195.961C206.454 195.653 206.176 195.087 205.758 194.262C205.579 193.904 205.41 193.636 205.251 193.457C205.092 193.269 204.919 193.115 204.73 192.995L204.327 193.01L203.925 192.995V193.726C203.925 194.093 203.945 194.362 203.985 194.53C204.024 194.699 204.089 194.814 204.178 194.873C204.278 194.933 204.427 194.968 204.625 194.978C204.685 195.147 204.715 195.45 204.715 195.887C204.039 195.867 203.359 195.857 202.673 195.857C202.136 195.857 201.51 195.867 200.795 195.887C200.795 195.489 200.825 195.186 200.884 194.978C201.133 194.958 201.317 194.913 201.436 194.843C201.555 194.774 201.64 194.655 201.689 194.486C201.739 194.317 201.764 194.049 201.764 193.681V190.536C201.764 190.178 201.739 189.92 201.689 189.761C201.64 189.602 201.555 189.493 201.436 189.433C201.327 189.363 201.138 189.309 200.869 189.269C200.82 189.08 200.795 188.777 200.795 188.36C201.659 188.39 202.285 188.405 202.673 188.405C203.1 188.405 203.542 188.39 203.999 188.36C204.576 188.34 204.998 188.33 205.266 188.33C206.409 188.33 207.239 188.534 207.755 188.941C208.282 189.339 208.545 189.87 208.545 190.536C208.545 191.122 208.357 191.619 207.979 192.026C207.601 192.424 207.1 192.687 206.474 192.816C206.752 192.886 206.985 193.01 207.174 193.189C207.363 193.368 207.661 193.731 208.068 194.277ZM204.417 192.071C205.003 192.071 205.465 191.952 205.803 191.713C206.151 191.465 206.325 191.112 206.325 190.655C206.325 190.218 206.186 189.88 205.907 189.642C205.629 189.403 205.212 189.284 204.655 189.284C204.407 189.284 204.163 189.314 203.925 189.373V192.026C204.074 192.056 204.238 192.071 204.417 192.071ZM212.09 195.991C211.673 195.991 211.34 195.877 211.091 195.648C210.853 195.41 210.734 195.092 210.734 194.694C210.734 194.307 210.868 193.994 211.136 193.755C211.404 193.507 211.747 193.383 212.164 193.383C212.532 193.383 212.835 193.507 213.074 193.755C213.322 194.004 213.446 194.287 213.446 194.605C213.446 195.012 213.322 195.345 213.074 195.604C212.825 195.862 212.497 195.991 212.09 195.991Z" fill="#FF6600"/>
</svg>
