<svg width="50" height="50" viewBox="0 0 50 50" fill="none" xmlns="http://www.w3.org/2000/svg">
<rect x="0.735294" y="0.735294" width="48.5294" height="48.5294" rx="24.2647" stroke="black" stroke-width="1.47059"/>
<g clip-path="url(#clip0_202_551)">
<path d="M25.0063 19.0549C21.666 19.0549 18.9717 21.7071 18.9717 24.9953C18.9717 28.2834 21.666 30.9356 25.0063 30.9356C28.3466 30.9356 31.041 28.2834 31.041 24.9953C31.041 21.7071 28.3466 19.0549 25.0063 19.0549ZM25.0063 28.8573C22.8477 28.8573 21.083 27.1253 21.083 24.9953C21.083 22.8652 22.8424 21.1332 25.0063 21.1332C27.1702 21.1332 28.9296 22.8652 28.9296 24.9953C28.9296 27.1253 27.1649 28.8573 25.0063 28.8573ZM32.6954 18.8119C32.6954 19.5822 32.0651 20.1975 31.2878 20.1975C30.5053 20.1975 29.8803 19.5771 29.8803 18.8119C29.8803 18.0467 30.5105 17.4263 31.2878 17.4263C32.0651 17.4263 32.6954 18.0467 32.6954 18.8119ZM36.6922 20.2181C36.6029 18.3621 36.1723 16.718 34.791 15.3635C33.4149 14.0089 31.7448 13.585 29.8592 13.4919C27.916 13.3834 22.0914 13.3834 20.1481 13.4919C18.2679 13.5798 16.5977 14.0038 15.2164 15.3583C13.8351 16.7129 13.4097 18.3569 13.3151 20.213C13.2048 22.1259 13.2048 27.8595 13.3151 29.7724C13.4044 31.6284 13.8351 33.2725 15.2164 34.627C16.5977 35.9816 18.2626 36.4055 20.1481 36.4986C22.0914 36.6072 27.916 36.6072 29.8592 36.4986C31.7448 36.4107 33.4149 35.9868 34.791 34.627C36.167 33.2725 36.5977 31.6284 36.6922 29.7724C36.8025 27.8595 36.8025 22.1311 36.6922 20.2181ZM34.1817 31.8249C33.7721 32.8382 32.979 33.6189 31.9443 34.0273C30.395 34.6322 26.7185 34.4926 25.0063 34.4926C23.2941 34.4926 19.6124 34.627 18.0683 34.0273C17.0389 33.624 16.2458 32.8434 15.8309 31.8249C15.2164 30.2997 15.3582 26.6807 15.3582 24.9953C15.3582 23.3098 15.2217 19.6856 15.8309 18.1656C16.2406 17.1523 17.0336 16.3716 18.0683 15.9632C19.6177 15.3583 23.2941 15.4979 25.0063 15.4979C26.7185 15.4979 30.4002 15.3635 31.9443 15.9632C32.9737 16.3665 33.7668 17.1471 34.1817 18.1656C34.7962 19.6908 34.6544 23.3098 34.6544 24.9953C34.6544 26.6807 34.7962 30.3049 34.1817 31.8249Z" fill="#192031"/>
</g>
<defs>
<clipPath id="clip0_202_551">
<rect width="23.5294" height="26.4706" fill="white" transform="translate(13.2363 11.7647)"/>
</clipPath>
</defs>
</svg>
