<svg width="50" height="50" viewBox="0 0 50 50" fill="none" xmlns="http://www.w3.org/2000/svg">
<rect x="0.735294" y="0.735294" width="48.5294" height="48.5294" rx="24.2647" stroke="black" stroke-width="1.47059"/>
<g clip-path="url(#clip0_202_547)">
<path d="M18.5785 35.2941V20.411H13.534V35.2941H18.5785ZM16.0569 18.3778C17.816 18.3778 18.911 17.2349 18.911 15.8068C18.8782 14.3464 17.8161 13.2352 16.0903 13.2352C14.3647 13.2352 13.2363 14.3464 13.2363 15.8068C13.2363 17.235 14.331 18.3778 16.024 18.3778H16.0567H16.0569ZM21.3707 35.2941H26.4152V26.9827C26.4152 26.5378 26.448 26.0935 26.5812 25.7755C26.9459 24.8868 27.7759 23.9663 29.1695 23.9663C30.9949 23.9663 31.7251 25.3311 31.7251 27.3319V35.294H36.7694V26.7602C36.7694 22.1887 34.2807 20.0616 30.9616 20.0616C28.2403 20.0616 27.0455 21.5533 26.3817 22.5692H26.4153V20.4107H21.3708C21.437 21.8073 21.3708 35.2938 21.3708 35.2938L21.3707 35.2941Z" fill="#192031"/>
</g>
<defs>
<clipPath id="clip0_202_547">
<rect width="23.5294" height="22.0588" fill="white" transform="translate(13.2363 13.2353)"/>
</clipPath>
</defs>
</svg>
