<svg width="55" height="55" viewBox="0 0 55 55" fill="none" xmlns="http://www.w3.org/2000/svg">
    <circle cx="27.5" cy="27.5" r="27" stroke="black" />
    <path
        d="M23.77 38.601C23.452 38.601 23.134 38.4773 22.816 38.23C22.4627 37.9473 22.2683 37.6293 22.233 37.276C22.233 36.8873 22.3213 36.5693 22.498 36.322C23.664 34.8733 24.8123 33.407 25.943 31.923C27.109 30.439 28.2573 28.9727 29.388 27.524C28.2573 26.0753 27.109 24.609 25.943 23.125C24.8123 21.641 23.664 20.1747 22.498 18.726C22.3213 18.4433 22.233 18.196 22.233 17.984C22.233 17.772 22.286 17.56 22.392 17.348C22.6393 16.7473 23.0987 16.447 23.77 16.447C24.194 16.447 24.5297 16.606 24.777 16.924L31.932 26.199C32.1087 26.411 32.25 26.623 32.356 26.835C32.462 27.047 32.515 27.2943 32.515 27.577C32.515 27.895 32.3913 28.2307 32.144 28.584V28.637L24.777 38.124C24.5297 38.442 24.194 38.601 23.77 38.601Z"
        fill="black" />
</svg>
    