<svg width="50" height="50" viewBox="0 0 50 50" fill="none" xmlns="http://www.w3.org/2000/svg">
    <rect x="0.735294" y="0.735294" width="48.5294" height="48.5294" rx="24.2647" stroke="black"
        stroke-width="1.47059" />
    <g clipPath="url(#clip0_202_543)">
        <path
            d="M38.2343 17.2123C37.243 17.6307 36.1917 17.9053 35.1151 18.027C36.2365 17.3867 37.0975 16.3728 37.5029 15.1647C36.4369 15.7673 35.2706 16.1919 34.0544 16.4201C33.0637 15.4147 31.6524 14.7863 30.0903 14.7863C27.0911 14.7863 24.6594 17.1028 24.6594 19.9599C24.6594 20.3655 24.7075 20.7603 24.8 21.1391C20.2866 20.9233 16.285 18.8635 13.6064 15.7333C13.139 16.4975 12.8712 17.3863 12.8712 18.3344C12.8712 20.1294 13.83 21.7129 15.2872 22.6407C14.4247 22.615 13.5813 22.3931 12.8273 21.9935C12.8269 22.0152 12.8269 22.0369 12.8269 22.0587C12.8269 24.5654 14.6989 26.6565 17.1832 27.1318C16.3835 27.339 15.5447 27.3694 14.7308 27.2205C15.4218 29.276 17.4274 30.7717 19.8038 30.8136C17.9452 32.2012 15.6035 33.0283 13.0592 33.0283C12.6208 33.0283 12.1885 33.0038 11.7637 32.956C14.167 34.424 17.0216 35.2805 20.0885 35.2805C30.0777 35.2805 35.5401 27.3968 35.5401 20.56C35.5401 20.3355 35.5349 20.1124 35.5243 19.8906C36.5875 19.1584 37.5052 18.2514 38.2343 17.2123Z"
            fill="#192031" />
    </g>
    <defs>
        <clipPath id="clip0_202_543">
            <rect width="26.4706" height="20.5882" fill="white"
                transform="translate(11.7637 14.7059)" />
        </clipPath>
    </defs>
</svg>